<?xml version="1.0" encoding="UTF-8" standalone="no"?>
<!-- Created with Inkscape (http://www.inkscape.org/) -->

<svg
   xmlns:dc="http://purl.org/dc/elements/1.1/"
   xmlns:cc="http://creativecommons.org/ns#"
   xmlns:rdf="http://www.w3.org/1999/02/22-rdf-syntax-ns#"
   xmlns:svg="http://www.w3.org/2000/svg"
   xmlns="http://www.w3.org/2000/svg"
   xmlns:xlink="http://www.w3.org/1999/xlink"
   xmlns:sodipodi="http://sodipodi.sourceforge.net/DTD/sodipodi-0.dtd"
   xmlns:inkscape="http://www.inkscape.org/namespaces/inkscape"
   width="1000"
   height="1000"
   id="svg2"
   version="1.1"
   inkscape:version="0.48.4 r9939"
   sodipodi:docname="explosion_center.svg">
  <defs
     id="defs4">
    <linearGradient
       id="linearGradient4010">
      <stop
         style="stop-color:#f7e808;stop-opacity:1;"
         offset="0"
         id="stop4012" />
      <stop
         style="stop-color:#ff7e00;stop-opacity:1;"
         offset="1"
         id="stop4014" />
    </linearGradient>
    <linearGradient
       id="linearGradient3976">
      <stop
         id="stop3978"
         offset="0"
         style="stop-color:#f7c208;stop-opacity:1;" />
      <stop
         id="stop3980"
         offset="1"
         style="stop-color:#ff5900;stop-opacity:1;" />
    </linearGradient>
    <linearGradient
       id="linearGradient3130">
      <stop
         style="stop-color:#f70808;stop-opacity:1;"
         offset="0"
         id="stop3132" />
      <stop
         style="stop-color:#be0502;stop-opacity:1;"
         offset="1"
         id="stop3134" />
    </linearGradient>
    <linearGradient
       id="linearGradient3118">
      <stop
         style="stop-color:#ff0000;stop-opacity:1;"
         offset="1"
         id="stop3120" />
      <stop
         style="stop-color:#ff5c00;stop-opacity:0.99579829;"
         offset="1"
         id="stop3122" />
    </linearGradient>
    <radialGradient
       inkscape:collect="always"
       xlink:href="#linearGradient3130"
       id="radialGradient3146"
       gradientUnits="userSpaceOnUse"
       gradientTransform="matrix(-0.39087651,-0.50963108,0.58062754,-0.44532858,271.05485,780.10252)"
       cx="164.04793"
       cy="422.26779"
       fx="164.04793"
       fy="422.26779"
       r="276.76056" />
    <radialGradient
       inkscape:collect="always"
       xlink:href="#linearGradient3130"
       id="radialGradient3164"
       gradientUnits="userSpaceOnUse"
       gradientTransform="matrix(-0.39087651,-0.50963108,0.58062754,-0.44532858,271.05485,780.10252)"
       cx="164.04793"
       cy="422.26779"
       fx="164.04793"
       fy="422.26779"
       r="276.76056" />
    <radialGradient
       inkscape:collect="always"
       xlink:href="#linearGradient3130"
       id="radialGradient3168"
       gradientUnits="userSpaceOnUse"
       gradientTransform="matrix(-0.39087651,-0.50963108,0.58062754,-0.44532858,271.05485,780.10252)"
       cx="164.04793"
       cy="422.26779"
       fx="164.04793"
       fy="422.26779"
       r="276.76056" />
    <radialGradient
       inkscape:collect="always"
       xlink:href="#linearGradient3130"
       id="radialGradient3172"
       gradientUnits="userSpaceOnUse"
       gradientTransform="matrix(-0.39087651,-0.50963108,0.58062754,-0.44532858,271.05485,780.10252)"
       cx="164.04793"
       cy="422.26779"
       fx="164.04793"
       fy="422.26779"
       r="276.76056" />
    <radialGradient
       inkscape:collect="always"
       xlink:href="#linearGradient3130"
       id="radialGradient3176"
       gradientUnits="userSpaceOnUse"
       gradientTransform="matrix(-0.39087651,-0.50963108,0.58062754,-0.44532858,271.05485,780.10252)"
       cx="164.04793"
       cy="422.26779"
       fx="164.04793"
       fy="422.26779"
       r="276.76056" />
    <radialGradient
       inkscape:collect="always"
       xlink:href="#linearGradient3130"
       id="radialGradient3180"
       gradientUnits="userSpaceOnUse"
       gradientTransform="matrix(-0.39087651,-0.50963108,0.58062754,-0.44532858,271.05485,780.10252)"
       cx="164.04793"
       cy="422.26779"
       fx="164.04793"
       fy="422.26779"
       r="276.76056" />
    <radialGradient
       inkscape:collect="always"
       xlink:href="#linearGradient3130"
       id="radialGradient3184"
       gradientUnits="userSpaceOnUse"
       gradientTransform="matrix(-0.39087651,-0.50963108,0.58062754,-0.44532858,271.05485,780.10252)"
       cx="164.04793"
       cy="422.26779"
       fx="164.04793"
       fy="422.26779"
       r="276.76056" />
    <radialGradient
       inkscape:collect="always"
       xlink:href="#linearGradient3130"
       id="radialGradient3188"
       gradientUnits="userSpaceOnUse"
       gradientTransform="matrix(-0.39087651,-0.50963108,0.58062754,-0.44532858,271.05485,780.10252)"
       cx="164.04793"
       cy="422.26779"
       fx="164.04793"
       fy="422.26779"
       r="276.76056" />
    <radialGradient
       inkscape:collect="always"
       xlink:href="#linearGradient3130"
       id="radialGradient3192"
       gradientUnits="userSpaceOnUse"
       gradientTransform="matrix(-0.39087651,-0.50963108,0.58062754,-0.44532858,271.05485,780.10252)"
       cx="164.04793"
       cy="422.26779"
       fx="164.04793"
       fy="422.26779"
       r="276.76056" />
    <radialGradient
       inkscape:collect="always"
       xlink:href="#linearGradient3130"
       id="radialGradient3196"
       gradientUnits="userSpaceOnUse"
       gradientTransform="matrix(-0.39087651,-0.50963108,0.58062754,-0.44532858,271.05485,780.10252)"
       cx="164.04793"
       cy="422.26779"
       fx="164.04793"
       fy="422.26779"
       r="276.76056" />
    <radialGradient
       inkscape:collect="always"
       xlink:href="#linearGradient3130"
       id="radialGradient3200"
       gradientUnits="userSpaceOnUse"
       gradientTransform="matrix(-0.39087651,-0.50963108,0.58062754,-0.44532858,271.05485,780.10252)"
       cx="164.04793"
       cy="422.26779"
       fx="164.04793"
       fy="422.26779"
       r="276.76056" />
    <radialGradient
       inkscape:collect="always"
       xlink:href="#linearGradient3130"
       id="radialGradient3202"
       gradientUnits="userSpaceOnUse"
       gradientTransform="matrix(-0.39087651,-0.50963108,0.58062754,-0.44532858,271.05485,780.10252)"
       cx="164.04793"
       cy="422.26779"
       fx="164.04793"
       fy="422.26779"
       r="276.76056" />
    <radialGradient
       inkscape:collect="always"
       xlink:href="#linearGradient3976"
       id="radialGradient3206"
       gradientUnits="userSpaceOnUse"
       gradientTransform="matrix(-0.55179241,-0.64882373,0.60146286,-0.51151583,295.88403,849.8069)"
       cx="207.70035"
       cy="484.86914"
       fx="207.70035"
       fy="484.86914"
       r="276.76056" />
    <radialGradient
       inkscape:collect="always"
       xlink:href="#linearGradient3976"
       id="radialGradient3984"
       gradientUnits="userSpaceOnUse"
       gradientTransform="matrix(-0.55179241,-0.64882373,0.60146286,-0.51151583,295.88403,849.8069)"
       cx="207.70035"
       cy="484.86914"
       fx="207.70035"
       fy="484.86914"
       r="276.76056" />
    <radialGradient
       inkscape:collect="always"
       xlink:href="#linearGradient3976"
       id="radialGradient3988"
       gradientUnits="userSpaceOnUse"
       gradientTransform="matrix(-0.55179241,-0.64882373,0.60146286,-0.51151583,295.88403,849.8069)"
       cx="207.70035"
       cy="484.86914"
       fx="207.70035"
       fy="484.86914"
       r="276.76056" />
    <radialGradient
       inkscape:collect="always"
       xlink:href="#linearGradient3976"
       id="radialGradient3992"
       gradientUnits="userSpaceOnUse"
       gradientTransform="matrix(-0.55179241,-0.64882373,0.60146286,-0.51151583,295.88403,849.8069)"
       cx="207.70035"
       cy="484.86914"
       fx="207.70035"
       fy="484.86914"
       r="276.76056" />
    <radialGradient
       inkscape:collect="always"
       xlink:href="#linearGradient3976"
       id="radialGradient3996"
       gradientUnits="userSpaceOnUse"
       gradientTransform="matrix(-0.55179241,-0.64882373,0.60146286,-0.51151583,295.88403,849.8069)"
       cx="207.70035"
       cy="484.86914"
       fx="207.70035"
       fy="484.86914"
       r="276.76056" />
    <radialGradient
       inkscape:collect="always"
       xlink:href="#linearGradient3976"
       id="radialGradient4000"
       gradientUnits="userSpaceOnUse"
       gradientTransform="matrix(-0.55179241,-0.64882373,0.60146286,-0.51151583,295.88403,849.8069)"
       cx="207.70035"
       cy="484.86914"
       fx="207.70035"
       fy="484.86914"
       r="276.76056" />
    <radialGradient
       inkscape:collect="always"
       xlink:href="#linearGradient3976"
       id="radialGradient4004"
       gradientUnits="userSpaceOnUse"
       gradientTransform="matrix(-0.55179241,-0.64882373,0.60146286,-0.51151583,295.88403,849.8069)"
       cx="207.70035"
       cy="484.86914"
       fx="207.70035"
       fy="484.86914"
       r="276.76056" />
    <radialGradient
       inkscape:collect="always"
       xlink:href="#linearGradient3976"
       id="radialGradient4018"
       gradientUnits="userSpaceOnUse"
       gradientTransform="matrix(-0.55179241,-0.64882373,0.60146286,-0.51151583,295.88403,849.8069)"
       cx="207.70035"
       cy="484.86914"
       fx="207.70035"
       fy="484.86914"
       r="276.76056" />
  </defs>
  <sodipodi:namedview
     id="base"
     pagecolor="#ffffff"
     bordercolor="#666666"
     borderopacity="1.0"
     inkscape:pageopacity="0.0"
     inkscape:pageshadow="2"
     inkscape:zoom="0.18"
     inkscape:cx="547.88732"
     inkscape:cy="482.80841"
     inkscape:document-units="px"
     inkscape:current-layer="layer1"
     showgrid="false"
     inkscape:window-width="1615"
     inkscape:window-height="1026"
     inkscape:window-x="65"
     inkscape:window-y="24"
     inkscape:window-maximized="1" />
  <metadata
     id="metadata7">
    <rdf:RDF>
      <cc:Work
         rdf:about="">
        <dc:format>image/svg+xml</dc:format>
        <dc:type
           rdf:resource="http://purl.org/dc/dcmitype/StillImage" />
        <dc:title></dc:title>
      </cc:Work>
    </rdf:RDF>
  </metadata>
  <g
     inkscape:label="Ebene 1"
     inkscape:groupmode="layer"
     id="layer1"
     transform="translate(0,-52.362183)">
    <rect
       style="fill:#2e2e2e;fill-opacity:1;stroke:#000000;stroke-width:0;stroke-linecap:square;stroke-linejoin:miter;stroke-miterlimit:4;stroke-opacity:1;stroke-dasharray:none"
       id="rect3106"
       width="500"
       height="1000"
       x="250"
       y="52.362183" />
    <rect
       style="fill:#2e2e2e;fill-opacity:1;stroke:#000000;stroke-width:0;stroke-linecap:square;stroke-linejoin:miter;stroke-miterlimit:4;stroke-opacity:1;stroke-dasharray:none"
       id="rect3108"
       width="1000"
       height="500"
       x="0"
       y="302.36218" />
    <path
       style="fill:#2e2e2e;fill-opacity:1;stroke:#000000;stroke-width:0;stroke-linecap:square;stroke-linejoin:miter;stroke-miterlimit:4;stroke-opacity:1;stroke-dasharray:none"
       d="m 250.56338,874.22535 0,-124.64789 -124.64789,0 -124.6478844,0 0,-249.29577 0,-249.29577 124.6478844,0 124.64789,0 0,-125.35212 0,-125.35210986 249.29577,0 249.29578,0 0,125.35210986 0,125.35212 125.35211,0 125.35211,0 0,249.29577 0,249.29577 -125.35211,0 -125.35211,0 0,124.64789 0,124.64789 -249.29578,0 -249.29577,0 0,-124.64789 z"
       id="path3110"
       inkscape:connector-curvature="0"
       transform="translate(0,52.362183)" />
    <path
       style="fill:#b3b3b3;fill-opacity:1;stroke:#000000;stroke-width:0;stroke-linecap:square;stroke-linejoin:miter;stroke-miterlimit:4;stroke-opacity:1;stroke-dasharray:none"
       d="m 250.56338,874.22535 0,-124.64789 -124.64789,0 -124.6478844,0 0,-249.29577 0,-249.29577 124.6478844,0 124.64789,0 0,-125.35212 0,-125.35210986 249.29577,0 249.29578,0 0,125.35210986 0,125.35212 125.35211,0 125.35211,0 0,249.29577 0,249.29577 -125.35211,0 -125.35211,0 0,124.64789 0,124.64789 -249.29578,0 -249.29577,0 0,-124.64789 z"
       id="path3112"
       inkscape:connector-curvature="0"
       transform="translate(0,52.362183)" />
    <path
       sodipodi:type="arc"
       style="fill:url(#radialGradient3146);fill-opacity:1;stroke:#000000;stroke-width:0;stroke-linecap:square;stroke-linejoin:miter;stroke-miterlimit:4;stroke-opacity:1;stroke-dasharray:none"
       id="path3128"
       sodipodi:cx="359.85916"
       sodipodi:cy="414.78873"
       sodipodi:rx="276.76056"
       sodipodi:ry="276.76056"
       d="m 636.61972,414.78873 a 276.76056,276.76056 0 1 1 -553.521118,0 276.76056,276.76056 0 1 1 553.521118,0 z"
       transform="matrix(0.86005089,0,0,0.86005089,18.671829,54.777694)" />
    <path
       transform="matrix(-0.62815294,0.82537673,-0.82537673,-0.62815294,1196.7943,454.96603)"
       d="m 636.61972,414.78873 a 276.76056,276.76056 0 1 1 -553.521118,0 276.76056,276.76056 0 1 1 553.521118,0 z"
       sodipodi:ry="276.76056"
       sodipodi:rx="276.76056"
       sodipodi:cy="414.78873"
       sodipodi:cx="359.85916"
       id="use3138"
       style="fill:url(#radialGradient3180);fill-opacity:1;stroke:#000000;stroke-width:0;stroke-linecap:square;stroke-linejoin:miter;stroke-miterlimit:4;stroke-opacity:1;stroke-dasharray:none"
       sodipodi:type="arc" />
    <path
       transform="matrix(-0.43190562,0.66806586,-0.66806586,-0.43190562,1312.933,599.79513)"
       d="m 636.61972,414.78873 a 276.76056,276.76056 0 1 1 -553.521118,0 276.76056,276.76056 0 1 1 553.521118,0 z"
       sodipodi:ry="276.76056"
       sodipodi:rx="276.76056"
       sodipodi:cy="414.78873"
       sodipodi:cx="359.85916"
       id="use3140"
       style="fill:url(#radialGradient3202);fill-opacity:1;stroke:#000000;stroke-width:0;stroke-linecap:square;stroke-linejoin:miter;stroke-miterlimit:4;stroke-opacity:1;stroke-dasharray:none"
       sodipodi:type="arc" />
    <path
       sodipodi:type="arc"
       style="fill:url(#radialGradient3172);fill-opacity:1;stroke:#000000;stroke-width:0;stroke-linecap:square;stroke-linejoin:miter;stroke-miterlimit:4;stroke-opacity:1;stroke-dasharray:none"
       id="use3148"
       sodipodi:cx="359.85916"
       sodipodi:cy="414.78873"
       sodipodi:rx="276.76056"
       sodipodi:ry="276.76056"
       d="m 636.61972,414.78873 a 276.76056,276.76056 0 1 1 -553.521118,0 276.76056,276.76056 0 1 1 553.521118,0 z"
       transform="matrix(0.09343741,-0.68743141,0.68743141,0.09343741,-67.93876,966.85994)" />
    <path
       sodipodi:type="arc"
       style="fill:url(#radialGradient3164);fill-opacity:1;stroke:#000000;stroke-width:0;stroke-linecap:square;stroke-linejoin:miter;stroke-miterlimit:4;stroke-opacity:1;stroke-dasharray:none"
       id="use3150"
       sodipodi:cx="359.85916"
       sodipodi:cy="414.78873"
       sodipodi:rx="276.76056"
       sodipodi:ry="276.76056"
       d="m 636.61972,414.78873 a 276.76056,276.76056 0 1 1 -553.521118,0 276.76056,276.76056 0 1 1 553.521118,0 z"
       transform="matrix(-0.40085542,-0.67533389,0.67533389,-0.40085542,447.34933,1237.9562)" />
    <path
       transform="matrix(0.51703812,-0.46256251,0.46256251,0.51703812,-291.891,425.72699)"
       d="m 636.61972,414.78873 a 276.76056,276.76056 0 1 1 -553.521118,0 276.76056,276.76056 0 1 1 553.521118,0 z"
       sodipodi:ry="276.76056"
       sodipodi:rx="276.76056"
       sodipodi:cy="414.78873"
       sodipodi:cx="359.85916"
       id="use3152"
       style="fill:url(#radialGradient3176);fill-opacity:1;stroke:#000000;stroke-width:0;stroke-linecap:square;stroke-linejoin:miter;stroke-miterlimit:4;stroke-opacity:1;stroke-dasharray:none"
       sodipodi:type="arc" />
    <path
       sodipodi:type="arc"
       style="fill:url(#radialGradient3168);fill-opacity:1;stroke:#000000;stroke-width:0;stroke-linecap:square;stroke-linejoin:miter;stroke-miterlimit:4;stroke-opacity:1;stroke-dasharray:none"
       id="use3154"
       sodipodi:cx="359.85916"
       sodipodi:cy="414.78873"
       sodipodi:rx="276.76056"
       sodipodi:ry="276.76056"
       d="m 636.61972,414.78873 a 276.76056,276.76056 0 1 1 -553.521118,0 276.76056,276.76056 0 1 1 553.521118,0 z"
       transform="matrix(-0.24833771,-0.6477815,0.6477815,-0.24833771,233.47031,1285.9053)" />
    <path
       transform="matrix(0.49334272,0.48775552,-0.48775552,0.49334272,616.45102,-219.10109)"
       d="m 636.61972,414.78873 a 276.76056,276.76056 0 1 1 -553.521118,0 276.76056,276.76056 0 1 1 553.521118,0 z"
       sodipodi:ry="276.76056"
       sodipodi:rx="276.76056"
       sodipodi:cy="414.78873"
       sodipodi:cx="359.85916"
       id="use3156"
       style="fill:url(#radialGradient3184);fill-opacity:1;stroke:#000000;stroke-width:0;stroke-linecap:square;stroke-linejoin:miter;stroke-miterlimit:4;stroke-opacity:1;stroke-dasharray:none"
       sodipodi:type="arc" />
    <path
       sodipodi:type="arc"
       style="fill:url(#radialGradient3188);fill-opacity:1;stroke:#000000;stroke-width:0;stroke-linecap:square;stroke-linejoin:miter;stroke-miterlimit:4;stroke-opacity:1;stroke-dasharray:none"
       id="path3186"
       sodipodi:cx="359.85916"
       sodipodi:cy="414.78873"
       sodipodi:rx="276.76056"
       sodipodi:ry="276.76056"
       d="m 636.61972,414.78873 a 276.76056,276.76056 0 1 1 -553.521118,0 276.76056,276.76056 0 1 1 553.521118,0 z"
       transform="matrix(0.02820148,0.69317903,-0.69317903,0.02820148,1111.2972,133.71354)" />
    <path
       sodipodi:type="arc"
       style="fill:url(#radialGradient3192);fill-opacity:1;stroke:#000000;stroke-width:0;stroke-linecap:square;stroke-linejoin:miter;stroke-miterlimit:4;stroke-opacity:1;stroke-dasharray:none"
       id="path3190"
       sodipodi:cx="359.85916"
       sodipodi:cy="414.78873"
       sodipodi:rx="276.76056"
       sodipodi:ry="276.76056"
       d="m 636.61972,414.78873 a 276.76056,276.76056 0 1 1 -553.521118,0 276.76056,276.76056 0 1 1 553.521118,0 z"
       transform="matrix(0.65403746,0.2313601,-0.2313601,0.65403746,250.86516,-175.1794)" />
    <path
       sodipodi:type="arc"
       style="fill:url(#radialGradient3196);fill-opacity:1;stroke:#000000;stroke-width:0;stroke-linecap:square;stroke-linejoin:miter;stroke-miterlimit:4;stroke-opacity:1;stroke-dasharray:none"
       id="path3194"
       sodipodi:cx="359.85916"
       sodipodi:cy="414.78873"
       sodipodi:rx="276.76056"
       sodipodi:ry="276.76056"
       d="m 636.61972,414.78873 a 276.76056,276.76056 0 1 1 -553.521118,0 276.76056,276.76056 0 1 1 553.521118,0 z"
       transform="matrix(0.14498587,-0.44958033,0.44958033,0.14498587,-143.46481,815.51916)" />
    <path
       transform="matrix(-0.43739623,-0.17840379,0.17840379,-0.43739623,741.97197,1207.3867)"
       d="m 636.61972,414.78873 a 276.76056,276.76056 0 1 1 -553.521118,0 276.76056,276.76056 0 1 1 553.521118,0 z"
       sodipodi:ry="276.76056"
       sodipodi:rx="276.76056"
       sodipodi:cy="414.78873"
       sodipodi:cx="359.85916"
       id="path3198"
       style="fill:url(#radialGradient3200);fill-opacity:1;stroke:#000000;stroke-width:0;stroke-linecap:square;stroke-linejoin:miter;stroke-miterlimit:4;stroke-opacity:1;stroke-dasharray:none"
       sodipodi:type="arc" />
    <path
       transform="matrix(0.56916956,-0.14309716,0.14309716,0.56916956,-47.154433,293.36627)"
       d="m 636.61972,414.78873 a 276.76056,276.76056 0 1 1 -553.521118,0 276.76056,276.76056 0 1 1 553.521118,0 z"
       sodipodi:ry="276.76056"
       sodipodi:rx="276.76056"
       sodipodi:cy="414.78873"
       sodipodi:cx="359.85916"
       id="path3204"
       style="fill:url(#radialGradient3206);fill-opacity:1;stroke:#000000;stroke-width:0;stroke-linecap:square;stroke-linejoin:miter;stroke-miterlimit:4;stroke-opacity:1;stroke-dasharray:none"
       sodipodi:type="arc" />
    <path
       sodipodi:type="arc"
       style="fill:url(#radialGradient3984);fill-opacity:1;stroke:#000000;stroke-width:0;stroke-linecap:square;stroke-linejoin:miter;stroke-miterlimit:4;stroke-opacity:1;stroke-dasharray:none"
       id="path3982"
       sodipodi:cx="359.85916"
       sodipodi:cy="414.78873"
       sodipodi:rx="276.76056"
       sodipodi:ry="276.76056"
       d="m 636.61972,414.78873 a 276.76056,276.76056 0 1 1 -553.521118,0 276.76056,276.76056 0 1 1 553.521118,0 z"
       transform="matrix(0.41480251,0.54012413,-0.54012413,0.41480251,553.05606,31.955084)" />
    <path
       transform="matrix(-0.45133137,0.39477362,-0.39477362,-0.45133137,1049.5229,456.19941)"
       d="m 636.61972,414.78873 a 276.76056,276.76056 0 1 1 -553.521118,0 276.76056,276.76056 0 1 1 553.521118,0 z"
       sodipodi:ry="276.76056"
       sodipodi:rx="276.76056"
       sodipodi:cy="414.78873"
       sodipodi:cx="359.85916"
       id="path3986"
       style="fill:url(#radialGradient3988);fill-opacity:1;stroke:#000000;stroke-width:0;stroke-linecap:square;stroke-linejoin:miter;stroke-miterlimit:4;stroke-opacity:1;stroke-dasharray:none"
       sodipodi:type="arc" />
    <path
       sodipodi:type="arc"
       style="fill:url(#radialGradient3992);fill-opacity:1;stroke:#000000;stroke-width:0;stroke-linecap:square;stroke-linejoin:miter;stroke-miterlimit:4;stroke-opacity:1;stroke-dasharray:none"
       id="path3990"
       sodipodi:cx="359.85916"
       sodipodi:cy="414.78873"
       sodipodi:rx="276.76056"
       sodipodi:ry="276.76056"
       d="m 636.61972,414.78873 a 276.76056,276.76056 0 1 1 -553.521118,0 276.76056,276.76056 0 1 1 553.521118,0 z"
       transform="matrix(-0.00243715,-0.67847628,0.67847628,-0.00243715,129.43197,969.60222)" />
    <path
       sodipodi:type="arc"
       style="fill:url(#radialGradient3996);fill-opacity:1;stroke:#000000;stroke-width:0;stroke-linecap:square;stroke-linejoin:miter;stroke-miterlimit:4;stroke-opacity:1;stroke-dasharray:none"
       id="path3994"
       sodipodi:cx="359.85916"
       sodipodi:cy="414.78873"
       sodipodi:rx="276.76056"
       sodipodi:ry="276.76056"
       d="m 636.61972,414.78873 a 276.76056,276.76056 0 1 1 -553.521118,0 276.76056,276.76056 0 1 1 553.521118,0 z"
       transform="matrix(-0.70686116,-0.10149688,0.10149688,-0.70686116,840.55982,997.82005)" />
    <path
       sodipodi:type="arc"
       style="fill:url(#radialGradient4000);fill-opacity:1;stroke:#000000;stroke-width:0;stroke-linecap:square;stroke-linejoin:miter;stroke-miterlimit:4;stroke-opacity:1;stroke-dasharray:none"
       id="path3998"
       sodipodi:cx="359.85916"
       sodipodi:cy="414.78873"
       sodipodi:rx="276.76056"
       sodipodi:ry="276.76056"
       d="m 636.61972,414.78873 a 276.76056,276.76056 0 1 1 -553.521118,0 276.76056,276.76056 0 1 1 553.521118,0 z"
       transform="matrix(0.18110049,0.08535173,-0.08535173,0.18110049,275.98619,10.151686)" />
    <path
       transform="matrix(0.03687981,-0.19677953,0.19677953,0.03687981,484.0999,1012.3454)"
       d="m 636.61972,414.78873 a 276.76056,276.76056 0 1 1 -553.521118,0 276.76056,276.76056 0 1 1 553.521118,0 z"
       sodipodi:ry="276.76056"
       sodipodi:rx="276.76056"
       sodipodi:cy="414.78873"
       sodipodi:cx="359.85916"
       id="path4002"
       style="fill:url(#radialGradient4004);fill-opacity:1;stroke:#000000;stroke-width:0;stroke-linecap:square;stroke-linejoin:miter;stroke-miterlimit:4;stroke-opacity:1;stroke-dasharray:none"
       sodipodi:type="arc" />
    <path
       sodipodi:type="arc"
       style="fill:url(#radialGradient4018);fill-opacity:1;stroke:#000000;stroke-width:0;stroke-linecap:square;stroke-linejoin:miter;stroke-miterlimit:4;stroke-opacity:1;stroke-dasharray:none"
       id="path4016"
       sodipodi:cx="359.85916"
       sodipodi:cy="414.78873"
       sodipodi:rx="276.76056"
       sodipodi:ry="276.76056"
       d="m 636.61972,414.78873 a 276.76056,276.76056 0 1 1 -553.521118,0 276.76056,276.76056 0 1 1 553.521118,0 z"
       transform="matrix(-0.19813116,-0.02874623,0.02874623,-0.19813116,976.39724,719.77952)" />
    <path
       style="fill:#ffca10;fill-opacity:1;stroke:none"
       d="m 345.07042,577.71429 c -34.59054,-83.3721 -254.929574,7.04226 -254.929574,7.04226 0,0 215.005754,-74.99272 226.760554,-125.35212 10.69395,-45.81454 -25.35211,-277.46478 -25.35211,-277.46478 0,0 86.01836,252.77891 140.84507,271.83098 C 453.09188,460.96294 584.36767,86.938908 605.6338,76.305845 622.64694,98.635587 503.86159,445.06727 567.60563,473.48894 640.6635,506.06339 977.40098,345.26594 977.46479,345.31993 913.40984,411.06054 629.30572,530.9717 625.35211,560.81288 618.01667,616.17957 760.56338,863.23467 760.56338,867.85514 759.88578,867.91674 602.699,606.44435 556.33802,612.92556 493.39104,621.72549 507.88384,966.87792 501.40845,969.26359 500.50575,968.52019 453.02511,679.1216 423.94366,666.44668 390.19185,651.73623 216.50236,857.89622 183.09859,849.54528 172.49654,840.00343 375.0064,649.8677 345.07042,577.71429 z"
       id="path4022"
       inkscape:connector-curvature="0"
       sodipodi:nodetypes="scscscscscscscs" />
  </g>
</svg>
