<?xml version="1.0" encoding="UTF-8" standalone="no"?>
<!-- Created with Inkscape (http://www.inkscape.org/) -->

<svg
   xmlns:dc="http://purl.org/dc/elements/1.1/"
   xmlns:cc="http://creativecommons.org/ns#"
   xmlns:rdf="http://www.w3.org/1999/02/22-rdf-syntax-ns#"
   xmlns:svg="http://www.w3.org/2000/svg"
   xmlns="http://www.w3.org/2000/svg"
   xmlns:xlink="http://www.w3.org/1999/xlink"
   xmlns:sodipodi="http://sodipodi.sourceforge.net/DTD/sodipodi-0.dtd"
   xmlns:inkscape="http://www.inkscape.org/namespaces/inkscape"
   width="1000"
   height="1000"
   id="svg2"
   version="1.1"
   inkscape:version="0.47 r22583"
   sodipodi:docname="player_moving_right.svg">
  <defs
     id="defs4">
    <linearGradient
       inkscape:collect="always"
       id="linearGradient4253">
      <stop
         style="stop-color:#ffffff;stop-opacity:1"
         offset="0"
         id="stop4255" />
      <stop
         style="stop-color:#edcaa4;stop-opacity:0;"
         offset="1"
         id="stop4257" />
    </linearGradient>
    <linearGradient
       inkscape:collect="always"
       id="linearGradient4186">
      <stop
         style="stop-color:#f9f9f9;stop-opacity:0.84518828"
         offset="0"
         id="stop4188" />
      <stop
         style="stop-color:#807aba;stop-opacity:0;"
         offset="1"
         id="stop4190" />
    </linearGradient>
    <linearGradient
       inkscape:collect="always"
       id="linearGradient3873">
      <stop
         style="stop-color:#a94466;stop-opacity:1;"
         offset="0"
         id="stop3875" />
      <stop
         style="stop-color:#e4749f;stop-opacity:1"
         offset="1"
         id="stop3877" />
    </linearGradient>
    <inkscape:perspective
       sodipodi:type="inkscape:persp3d"
       inkscape:vp_x="0 : 526.18109 : 1"
       inkscape:vp_y="0 : 1000 : 0"
       inkscape:vp_z="744.09448 : 526.18109 : 1"
       inkscape:persp3d-origin="372.04724 : 350.78739 : 1"
       id="perspective10" />
    <inkscape:perspective
       id="perspective3040"
       inkscape:persp3d-origin="0.5 : 0.33333333 : 1"
       inkscape:vp_z="1 : 0.5 : 1"
       inkscape:vp_y="0 : 1000 : 0"
       inkscape:vp_x="0 : 0.5 : 1"
       sodipodi:type="inkscape:persp3d" />
    <filter
       inkscape:collect="always"
       id="filter3867"
       x="-0.39953909"
       width="1.7990782"
       y="-0.41048538"
       height="1.8209708">
      <feGaussianBlur
         inkscape:collect="always"
         stdDeviation="17.836567"
         id="feGaussianBlur3869" />
    </filter>
    <radialGradient
       inkscape:collect="always"
       xlink:href="#linearGradient3873"
       id="radialGradient3879"
       cx="407.09671"
       cy="617.58893"
       fx="407.09671"
       fy="617.58893"
       r="306.12509"
       gradientTransform="matrix(0.30633431,-0.54130701,0.45300649,0.25636363,5.5205225,727.25636)"
       gradientUnits="userSpaceOnUse" />
    <inkscape:perspective
       id="perspective3952"
       inkscape:persp3d-origin="0.5 : 0.33333333 : 1"
       inkscape:vp_z="1 : 0.5 : 1"
       inkscape:vp_y="0 : 1000 : 0"
       inkscape:vp_x="0 : 0.5 : 1"
       sodipodi:type="inkscape:persp3d" />
    <inkscape:perspective
       id="perspective4023"
       inkscape:persp3d-origin="0.5 : 0.33333333 : 1"
       inkscape:vp_z="1 : 0.5 : 1"
       inkscape:vp_y="0 : 1000 : 0"
       inkscape:vp_x="0 : 0.5 : 1"
       sodipodi:type="inkscape:persp3d" />
    <filter
       inkscape:collect="always"
       id="filter4050">
      <feGaussianBlur
         inkscape:collect="always"
         stdDeviation="1.6424635"
         id="feGaussianBlur4052" />
    </filter>
    <filter
       inkscape:collect="always"
       id="filter4072"
       x="-0.19686391"
       width="1.3937278"
       y="-0.17839073"
       height="1.3567815">
      <feGaussianBlur
         inkscape:collect="always"
         stdDeviation="4.60236"
         id="feGaussianBlur4074" />
    </filter>
    <filter
       inkscape:collect="always"
       id="filter4088">
      <feGaussianBlur
         inkscape:collect="always"
         stdDeviation="1.78797"
         id="feGaussianBlur4090" />
    </filter>
    <inkscape:perspective
       id="perspective4101"
       inkscape:persp3d-origin="0.5 : 0.33333333 : 1"
       inkscape:vp_z="1 : 0.5 : 1"
       inkscape:vp_y="0 : 1000 : 0"
       inkscape:vp_x="0 : 0.5 : 1"
       sodipodi:type="inkscape:persp3d" />
    <filter
       color-interpolation-filters="sRGB"
       inkscape:collect="always"
       id="filter4072-7"
       x="-0.1968639"
       width="1.3937278"
       y="-0.17839073"
       height="1.3567815">
      <feGaussianBlur
         inkscape:collect="always"
         stdDeviation="4.60236"
         id="feGaussianBlur4074-5" />
    </filter>
    <inkscape:perspective
       id="perspective4129"
       inkscape:persp3d-origin="0.5 : 0.33333333 : 1"
       inkscape:vp_z="1 : 0.5 : 1"
       inkscape:vp_y="0 : 1000 : 0"
       inkscape:vp_x="0 : 0.5 : 1"
       sodipodi:type="inkscape:persp3d" />
    <filter
       inkscape:collect="always"
       id="filter4153">
      <feGaussianBlur
         inkscape:collect="always"
         stdDeviation="3.0025053"
         id="feGaussianBlur4155" />
    </filter>
    <radialGradient
       inkscape:collect="always"
       xlink:href="#linearGradient4186"
       id="radialGradient4192"
       cx="592.57983"
       cy="573.17139"
       fx="592.57983"
       fy="573.17139"
       r="67.286976"
       gradientTransform="matrix(1.5213766,1.4531001,-0.81591904,1.1112539,166.94757,-909.72506)"
       gradientUnits="userSpaceOnUse" />
    <filter
       inkscape:collect="always"
       id="filter4204"
       x="-0.038367527"
       width="1.0767351"
       y="-0.19645829"
       height="1.3929166">
      <feGaussianBlur
         inkscape:collect="always"
         stdDeviation="2.0670008"
         id="feGaussianBlur4206" />
    </filter>
    <filter
       inkscape:collect="always"
       id="filter4239">
      <feGaussianBlur
         inkscape:collect="always"
         stdDeviation="2.4181293"
         id="feGaussianBlur4241" />
    </filter>
    <radialGradient
       inkscape:collect="always"
       xlink:href="#linearGradient4253"
       id="radialGradient4259"
       cx="610.49249"
       cy="479.80173"
       fx="610.49249"
       fy="479.80173"
       r="136.88248"
       gradientTransform="matrix(1.0032273,-0.89936507,0.77867728,0.86859498,-639.4899,581.70499)"
       gradientUnits="userSpaceOnUse" />
    <filter
       inkscape:collect="always"
       id="filter4324"
       x="-0.11684767"
       width="1.2336953"
       y="-0.11049059"
       height="1.2209812">
      <feGaussianBlur
         inkscape:collect="always"
         stdDeviation="2.819579"
         id="feGaussianBlur4326" />
    </filter>
    <filter
       inkscape:collect="always"
       id="filter4346"
       x="-0.2671988"
       width="1.5343976"
       y="-0.033794286"
       height="1.0675886">
      <feGaussianBlur
         inkscape:collect="always"
         stdDeviation="1.7210931"
         id="feGaussianBlur4348" />
    </filter>
    <inkscape:perspective
       id="perspective4422"
       inkscape:persp3d-origin="0.5 : 0.33333333 : 1"
       inkscape:vp_z="1 : 0.5 : 1"
       inkscape:vp_y="0 : 1000 : 0"
       inkscape:vp_x="0 : 0.5 : 1"
       sodipodi:type="inkscape:persp3d" />
    <filter
       color-interpolation-filters="sRGB"
       inkscape:collect="always"
       id="filter3936-0">
      <feGaussianBlur
         inkscape:collect="always"
         stdDeviation="1.0571429"
         id="feGaussianBlur3938-9" />
    </filter>
    <inkscape:perspective
       id="perspective4450"
       inkscape:persp3d-origin="0.5 : 0.33333333 : 1"
       inkscape:vp_z="1 : 0.5 : 1"
       inkscape:vp_y="0 : 1000 : 0"
       inkscape:vp_x="0 : 0.5 : 1"
       sodipodi:type="inkscape:persp3d" />
    <filter
       color-interpolation-filters="sRGB"
       inkscape:collect="always"
       id="filter3977-0">
      <feGaussianBlur
         inkscape:collect="always"
         stdDeviation="7.6776642"
         id="feGaussianBlur3979-9" />
    </filter>
    <inkscape:perspective
       id="perspective4478"
       inkscape:persp3d-origin="0.5 : 0.33333333 : 1"
       inkscape:vp_z="1 : 0.5 : 1"
       inkscape:vp_y="0 : 1000 : 0"
       inkscape:vp_x="0 : 0.5 : 1"
       sodipodi:type="inkscape:persp3d" />
    <filter
       color-interpolation-filters="sRGB"
       inkscape:collect="always"
       id="filter3867-9"
       x="-0.39953908"
       width="1.7990782"
       y="-0.41048539"
       height="1.8209708">
      <feGaussianBlur
         inkscape:collect="always"
         stdDeviation="17.836567"
         id="feGaussianBlur3869-8" />
    </filter>
    <filter
       inkscape:collect="always"
       id="filter4552"
       x="-0.21282973"
       width="1.4256595"
       y="-0.21324474"
       height="1.4264895">
      <feGaussianBlur
         inkscape:collect="always"
         stdDeviation="2.6769257"
         id="feGaussianBlur4554" />
    </filter>
    <inkscape:perspective
       id="perspective4564"
       inkscape:persp3d-origin="0.5 : 0.33333333 : 1"
       inkscape:vp_z="1 : 0.5 : 1"
       inkscape:vp_y="0 : 1000 : 0"
       inkscape:vp_x="0 : 0.5 : 1"
       sodipodi:type="inkscape:persp3d" />
    <inkscape:perspective
       id="perspective4592"
       inkscape:persp3d-origin="0.5 : 0.33333333 : 1"
       inkscape:vp_z="1 : 0.5 : 1"
       inkscape:vp_y="0 : 1000 : 0"
       inkscape:vp_x="0 : 0.5 : 1"
       sodipodi:type="inkscape:persp3d" />
    <inkscape:perspective
       id="perspective4626"
       inkscape:persp3d-origin="0.5 : 0.33333333 : 1"
       inkscape:vp_z="1 : 0.5 : 1"
       inkscape:vp_y="0 : 1000 : 0"
       inkscape:vp_x="0 : 0.5 : 1"
       sodipodi:type="inkscape:persp3d" />
    <inkscape:perspective
       id="perspective4658"
       inkscape:persp3d-origin="0.5 : 0.33333333 : 1"
       inkscape:vp_z="1 : 0.5 : 1"
       inkscape:vp_y="0 : 1000 : 0"
       inkscape:vp_x="0 : 0.5 : 1"
       sodipodi:type="inkscape:persp3d" />
    <inkscape:perspective
       id="perspective4697"
       inkscape:persp3d-origin="0.5 : 0.33333333 : 1"
       inkscape:vp_z="1 : 0.5 : 1"
       inkscape:vp_y="0 : 1000 : 0"
       inkscape:vp_x="0 : 0.5 : 1"
       sodipodi:type="inkscape:persp3d" />
    <filter
       inkscape:collect="always"
       id="filter4739">
      <feGaussianBlur
         inkscape:collect="always"
         stdDeviation="1.3794673"
         id="feGaussianBlur4741" />
    </filter>
    <filter
       inkscape:collect="always"
       id="filter4770">
      <feGaussianBlur
         inkscape:collect="always"
         stdDeviation="3.0029635"
         id="feGaussianBlur4772" />
    </filter>
    <inkscape:perspective
       id="perspective5291"
       inkscape:persp3d-origin="0.5 : 0.33333333 : 1"
       inkscape:vp_z="1 : 0.5 : 1"
       inkscape:vp_y="0 : 1000 : 0"
       inkscape:vp_x="0 : 0.5 : 1"
       sodipodi:type="inkscape:persp3d" />
    <filter
       color-interpolation-filters="sRGB"
       inkscape:collect="always"
       id="filter3683-0-8"
       x="-0.086114742"
       width="1.1722295"
       y="-0.19785315"
       height="1.3957063">
      <feGaussianBlur
         inkscape:collect="always"
         stdDeviation="6.4955102"
         id="feGaussianBlur3685-1-6" />
    </filter>
    <filter
       color-interpolation-filters="sRGB"
       inkscape:collect="always"
       id="filter3740-0"
       x="-0.068891801"
       width="1.1377836"
       y="-0.1582825"
       height="1.316565">
      <feGaussianBlur
         inkscape:collect="always"
         stdDeviation="5.196408"
         id="feGaussianBlur3742-1" />
    </filter>
    <filter
       id="filter3665-9"
       x="-0.25"
       width="1.5"
       y="-0.25"
       height="1.5"
       inkscape:menu="Non realistic 3D shaders"
       inkscape:menu-tooltip="Combination of smooth shading and embossing"
       inkscape:label="Emboss shader"
       color-interpolation-filters="sRGB">
      <feGaussianBlur
         id="feGaussianBlur3667-5"
         result="result8"
         stdDeviation="5" />
      <feComposite
         id="feComposite3669-6"
         in2="result8"
         in="result8"
         operator="xor"
         result="result6" />
      <feDisplacementMap
         id="feDisplacementMap3671-6"
         in2="result6"
         result="result4"
         scale="100"
         yChannelSelector="A"
         xChannelSelector="A"
         in="result8" />
      <feComposite
         k4="0"
         k3="0"
         k2="0"
         id="feComposite3673-5"
         in2="result4"
         k1="1"
         in="result4"
         operator="arithmetic"
         result="result2" />
      <feComposite
         id="feComposite3675-5"
         in2="result8"
         operator="in"
         in="result2"
         result="fbSourceGraphic" />
    </filter>
    <filter
       color-interpolation-filters="sRGB"
       inkscape:collect="always"
       id="filter3683-9"
       x="-0.086114742"
       width="1.1722295"
       y="-0.19785315"
       height="1.3957063">
      <feGaussianBlur
         inkscape:collect="always"
         stdDeviation="6.4955102"
         id="feGaussianBlur3685-3" />
    </filter>
    <linearGradient
       inkscape:collect="always"
       id="linearGradient2862-1">
      <stop
         style="stop-color:#cccccc;stop-opacity:1;"
         offset="0"
         id="stop2864-8" />
      <stop
         style="stop-color:#000000;stop-opacity:1"
         offset="1"
         id="stop2866-8" />
    </linearGradient>
    <linearGradient
       inkscape:collect="always"
       id="linearGradient3714">
      <stop
         style="stop-color:#e6e6e6;stop-opacity:1;"
         offset="0"
         id="stop3716" />
      <stop
         style="stop-color:#000000;stop-opacity:1"
         offset="1"
         id="stop3718" />
    </linearGradient>
    <linearGradient
       inkscape:collect="always"
       id="linearGradient3727">
      <stop
         style="stop-color:#ffffff;stop-opacity:1;"
         offset="0"
         id="stop3729" />
      <stop
         style="stop-color:#ffffff;stop-opacity:0;"
         offset="1"
         id="stop3731" />
    </linearGradient>
    <linearGradient
       inkscape:collect="always"
       xlink:href="#linearGradient2862-1"
       id="linearGradient5474"
       gradientUnits="userSpaceOnUse"
       gradientTransform="matrix(0.27750349,0,0,0.27750349,647.39882,-276.54543)"
       x1="510.78967"
       y1="-269.70569"
       x2="712.00769"
       y2="-303.29407" />
    <linearGradient
       inkscape:collect="always"
       xlink:href="#linearGradient3727"
       id="linearGradient5476"
       gradientUnits="userSpaceOnUse"
       gradientTransform="matrix(0.19333571,0,0,0.1588646,425.86819,271.15074)"
       x1="614.28571"
       y1="21.850126"
       x2="614.28571"
       y2="772.40863" />
    <radialGradient
       inkscape:collect="always"
       xlink:href="#linearGradient3714"
       id="radialGradient5478"
       gradientUnits="userSpaceOnUse"
       gradientTransform="matrix(0.42593187,0.66785211,-0.85595564,0.48972551,520.07134,-85.165459)"
       cx="404.22406"
       cy="336.48843"
       fx="404.22406"
       fy="336.48843"
       r="351.42856" />
    <filter
       inkscape:collect="always"
       id="filter5480">
      <feGaussianBlur
         inkscape:collect="always"
         stdDeviation="17.100841"
         id="feGaussianBlur5482" />
    </filter>
    <filter
       inkscape:collect="always"
       id="filter5488">
      <feGaussianBlur
         inkscape:collect="always"
         stdDeviation="1.0932635"
         id="feGaussianBlur5490" />
    </filter>
    <filter
       inkscape:collect="always"
       id="filter5492">
      <feGaussianBlur
         inkscape:collect="always"
         stdDeviation="1.4070734"
         id="feGaussianBlur5494" />
    </filter>
    <inkscape:perspective
       id="perspective3043"
       inkscape:persp3d-origin="0.5 : 0.33333333 : 1"
       inkscape:vp_z="1 : 0.5 : 1"
       inkscape:vp_y="0 : 1000 : 0"
       inkscape:vp_x="0 : 0.5 : 1"
       sodipodi:type="inkscape:persp3d" />
    <filter
       inkscape:collect="always"
       id="filter3827">
      <feGaussianBlur
         inkscape:collect="always"
         stdDeviation="2.6337451"
         id="feGaussianBlur3829" />
    </filter>
    <inkscape:perspective
       id="perspective4287"
       inkscape:persp3d-origin="0.5 : 0.33333333 : 1"
       inkscape:vp_z="1 : 0.5 : 1"
       inkscape:vp_y="0 : 1000 : 0"
       inkscape:vp_x="0 : 0.5 : 1"
       sodipodi:type="inkscape:persp3d" />
    <filter
       color-interpolation-filters="sRGB"
       inkscape:collect="always"
       id="filter4346-7"
       x="-0.2671988"
       width="1.5343976"
       y="-0.033794288"
       height="1.0675886">
      <feGaussianBlur
         inkscape:collect="always"
         stdDeviation="1.7210931"
         id="feGaussianBlur4348-2" />
    </filter>
    <filter
       color-interpolation-filters="sRGB"
       inkscape:collect="always"
       id="filter4324-3"
       x="-0.11684767"
       width="1.2336953"
       y="-0.11049059"
       height="1.2209812">
      <feGaussianBlur
         inkscape:collect="always"
         stdDeviation="2.819579"
         id="feGaussianBlur4326-3" />
    </filter>
  </defs>
  <sodipodi:namedview
     id="base"
     pagecolor="#ffffff"
     bordercolor="#666666"
     borderopacity="1.0"
     inkscape:pageopacity="0.0"
     inkscape:pageshadow="2"
     inkscape:zoom="1.979899"
     inkscape:cx="518.7751"
     inkscape:cy="539.92656"
     inkscape:document-units="px"
     inkscape:current-layer="layer1"
     showgrid="false"
     inkscape:window-width="1920"
     inkscape:window-height="1005"
     inkscape:window-x="0"
     inkscape:window-y="24"
     inkscape:window-maximized="1" />
  <metadata
     id="metadata7">
    <rdf:RDF>
      <cc:Work
         rdf:about="">
        <dc:format>image/svg+xml</dc:format>
        <dc:type
           rdf:resource="http://purl.org/dc/dcmitype/StillImage" />
        <dc:title />
      </cc:Work>
    </rdf:RDF>
  </metadata>
  <g
     inkscape:label="Layer 1"
     inkscape:groupmode="layer"
     id="layer1"
     transform="translate(0,-52.362183)">
    <image
       y="87.305565"
       x="874.35718"
       id="image3045"
       height="844.19946"
       width="838.42859"
       xlink:href="file:///home/wirnshofer/Desktop/bomberman-w_bombdq82.png" />
    <path
       transform="matrix(1.1506492,-0.45809087,-0.45809087,-1.1506492,-28.553786,1329.406)"
       d="m 435.71428,597.85712 a 53.57143,52.142857 0 1 1 -107.14286,0 53.57143,52.142857 0 1 1 107.14286,0 z"
       sodipodi:ry="52.142857"
       sodipodi:rx="53.57143"
       sodipodi:cy="597.85712"
       sodipodi:cx="382.14285"
       id="path3830"
       style="fill:#e376a0;fill-opacity:1;stroke:#000000;stroke-width:4.55075169000000024;stroke-miterlimit:4;stroke-opacity:1;stroke-dasharray:none;"
       sodipodi:type="arc" />
    <path
       transform="matrix(0.09102501,-0.43613157,-0.54421527,-0.1318703,151.36711,1091.9466)"
       style="fill:#9d3558;fill-opacity:1;stroke:none;"
       d="m 1492.8571,254.28572 c 0,60.75132 -61.7207,110 -137.8571,110 -76.1364,0 -137.8571,-49.24868 -137.8571,-110 0,-19.30903 6.3698,-38.27788 18.4693,-55 27.4074,36.60094 35.0359,57.07128 118.5222,79.49311 74.5263,16.5735 94.5018,-12.59621 138.7227,-24.49311 z"
       id="path3930-0"
       sodipodi:nodetypes="cssccc" />
    <path
       sodipodi:type="arc"
       style="fill:#ffffff;fill-opacity:1;stroke:none;filter:url(#filter3867)"
       id="path3845"
       sodipodi:cx="382.14285"
       sodipodi:cy="597.85712"
       sodipodi:rx="53.57143"
       sodipodi:ry="52.142857"
       d="m 435.71428,597.85712 a 53.57143,52.142857 0 1 1 -107.14286,0 53.57143,52.142857 0 1 1 107.14286,0 z"
       transform="matrix(0.50092767,-0.19942689,-0.19942689,-0.50092767,41.080469,868.75522)" />
    <path
       style="fill:#e5729d;fill-opacity:1;stroke:#000000;stroke-width:4.63000011;stroke-linecap:butt;stroke-linejoin:miter;stroke-miterlimit:4;stroke-opacity:1;stroke-dasharray:none;stroke-dashoffset:0;filter:url(#filter4050)"
       d="m 310.8987,970.98283 c 0,29.04457 9.87918,58.60107 -122.38243,57.37807 -65.00037,-0.6011 -108.182952,-37.49616 -108.182952,-66.54067 0,-29.04451 44.376572,-40.67719 107.566762,-49.75278 20.45005,-2.93711 58.523,14.16612 74.56035,7.10535 10.07831,-4.43719 41.4561,13.45137 48.43827,51.81003 z"
       id="path4043"
       sodipodi:nodetypes="cssssc"
       transform="matrix(0.85708116,0.68177182,-0.68177182,0.85708116,677.75102,-22.93957)" />
    <path
       sodipodi:type="arc"
       style="fill:#ffffff;fill-opacity:1;stroke:none;filter:url(#filter4072)"
       id="path4054"
       sodipodi:cx="383.92856"
       sodipodi:cy="892.5"
       sodipodi:rx="22.5"
       sodipodi:ry="31.071428"
       d="m 406.42856,892.5 a 22.5,31.071428 0 1 1 -45,0 22.5,31.071428 0 1 1 45,0 z"
       transform="matrix(-1.1896643,-0.14274027,-0.29245803,-0.72478159,873.05082,1581.6475)" />
    <path
       style="fill:#eb71a2;fill-opacity:1;stroke:#000000;stroke-width:5;stroke-miterlimit:4;stroke-opacity:1;filter:url(#filter4088)"
       d="m 1531.8001,930.48057 c 1.5746,11.70569 -2.2369,39.39522 -85.7667,46.12019 -94.2303,7.58646 -109.6015,-10.43018 -109.6015,-46.97209 0,-21.19132 24.7684,-43.56806 38.8591,-50.289 9.244,0.2553 10.104,12.37752 18.6387,8.61621 25.0582,-11.04336 110.1325,-17.94944 137.8704,42.52469 z"
       id="path4082"
       sodipodi:nodetypes="csscsc"
       transform="matrix(0.61044179,0.89682914,0.89682914,-0.61044179,-910.2905,-19.148256)" />
    <path
       style="fill:#a03b5b;fill-opacity:1;stroke:none;filter:url(#filter4153)"
       d="m 1452.8253,953.90514 c 1.5746,11.70569 20.491,20.53619 -63.2876,22.43264 -37.802,0.8557 -53.1058,-10.1672 -53.1058,-46.70911 0,-21.19132 13.515,-31.70916 27.6057,-38.4301 -4.3014,33.55593 18.8963,16.74607 88.7877,62.70657 z"
       id="path4082-4"
       sodipodi:nodetypes="csscc"
       transform="matrix(0.58603775,0.86097601,0.86097601,-0.58603775,-840.73517,16.816634)" />
    <path
       sodipodi:type="arc"
       style="fill:#ffffff;fill-opacity:1;stroke:none;filter:url(#filter4072-7)"
       id="path4054-2"
       sodipodi:cx="383.92856"
       sodipodi:cy="892.5"
       sodipodi:rx="22.5"
       sodipodi:ry="31.071428"
       d="m 406.42856,892.5 a 22.5,31.071428 0 1 1 -45,0 22.5,31.071428 0 1 1 45,0 z"
       transform="matrix(-0.79404101,-1.0340374,-0.84061104,0.12869569,1863.1575,1031.6957)" />
    <path
       transform="matrix(1.3376226,-0.55952408,0.49951107,1.1518136,-639.4589,186.64687)"
       style="fill:#554991;fill-opacity:1;stroke:#000000;stroke-width:4.78882217000000043;stroke-miterlimit:4;stroke-opacity:1;"
       d="m 632.59615,588.33975 c 0,49.93132 -18.75205,91.44189 -55.29396,91.44189 -36.54192,0 -66.90284,-40.48442 -66.165,-90.40865 0.48547,-32.84839 13.24993,-66.20505 23.94232,-76.80862 6.48813,-6.43423 25.85605,-19.70298 42.22268,-14.63328 44.19624,13.69015 36.32783,46.78179 55.29396,90.40866 z"
       id="path4157"
       sodipodi:nodetypes="cssssc" />
    <path
       sodipodi:nodetypes="cssssc"
       id="path4184"
       d="m 632.59615,588.33975 c 0,49.93132 -18.75205,91.44189 -55.29396,91.44189 -36.54192,0 -66.90284,-40.48442 -66.165,-90.40865 0.48547,-32.84839 13.24993,-66.20505 23.94232,-76.80862 6.48813,-6.43423 25.85605,-19.70298 42.22268,-14.63328 44.19624,13.69015 36.32783,46.78179 55.29396,90.40866 z"
       style="fill:url(#radialGradient4192);fill-opacity:1;stroke:#000000;stroke-width:4.78882217000000043;stroke-miterlimit:4;stroke-opacity:1;"
       transform="matrix(1.3376193,-0.55952267,0.49951111,1.1518137,-634.62411,184.62472)" />
    <path
       transform="matrix(1.2300635,-0.51453235,0.6257458,1.442896,-674.30516,-108.09366)"
       style="fill:#000000;fill-opacity:1;stroke:none;filter:url(#filter4204)"
       d="m 496.07857,653.60577 c 0,0 20.56995,-8.27676 40.59777,-9.09137 31.67779,-1.28848 34.74077,-0.96395 60.12626,2.70348 40.13525,5.79832 22.83228,6.38789 22.83228,6.38789 1.59014,0 2.87029,1.28015 2.87029,2.87029 l 0,19.5106 c 0,1.59014 -1.28015,2.87029 -2.87029,2.87029 l -57.34504,-3.53553 -66.21127,3.53553 c -1.59014,0 -2.87029,-1.28015 -2.87029,-2.87029 l 0,-19.5106 c 0,-1.59014 1.28015,-2.87029 2.87029,-2.87029 z"
       id="rect4194"
       sodipodi:nodetypes="cssccccccccc" />
    <rect
       style="opacity:0.69037655;fill:none;stroke:#ffdd55;stroke-width:8.61924934;stroke-miterlimit:4;stroke-opacity:1;stroke-dasharray:none"
       id="rect4211"
       width="39.00412"
       height="26.108526"
       x="-2.0524576"
       y="681.41638"
       ry="0.87793911"
       transform="matrix(0.86846045,-0.49575846,0.54070412,0.84121285,0,0)" />
    <path
       style="fill:#ffffff;fill-opacity:1;stroke:#000000;stroke-width:6.58375359;stroke-linecap:butt;stroke-linejoin:miter;stroke-miterlimit:4;stroke-opacity:1;stroke-dasharray:none;stroke-dashoffset:0;filter:url(#filter4770)"
       d="m 452.25683,454.38783 c 0,85.46352 -56.8366,127.90003 -147.99257,131.26678 -109.40089,4.04061 -162.43214,-30.78983 -168.19553,-139.348 -5.50427,-103.67733 78.0184,-142.0262 169.20568,-144.39878 116.47192,-3.03046 146.98242,71.05708 146.98242,152.48 z"
       id="path4225"
       sodipodi:nodetypes="csssc"
       inkscape:transform-center-x="9.7968703"
       inkscape:transform-center-y="-2.2914504"
       transform="matrix(1.0969816,-0.42280808,0.42280808,1.0969816,-234.63397,-62.013361)" />
    <path
       style="fill:#edcaa4;fill-opacity:1;stroke:#000000;stroke-width:6.56988621;stroke-linecap:butt;stroke-linejoin:miter;stroke-miterlimit:4;stroke-opacity:1;stroke-dashoffset:0;filter:url(#filter4239)"
       d="m 414.2879,455.15899 c 2.02028,79.39412 -50.00108,102.35183 -126.54415,104.82593 -93.75572,3.03045 -128.56451,-39.57394 -128.56451,-105.83608 0,-66.26214 40.86971,-124.01882 132.60512,-121.99852 76.56456,1.6862 128.56449,34.52318 122.50354,123.00867 z"
       id="path4232"
       sodipodi:nodetypes="csssc"
       transform="matrix(1.0969816,-0.42280808,0.42280808,1.0969816,-234.63397,-62.013361)" />
    <path
       sodipodi:nodetypes="csssc"
       id="path4251"
       d="m 411.00317,458.444 c 2.02028,79.39412 -50.00108,102.35183 -126.54415,104.82593 -93.75572,3.03045 -128.56451,-39.57394 -128.56451,-105.83608 0,-66.26214 40.86971,-124.01882 132.60512,-121.99852 76.56456,1.6862 128.56449,34.52318 122.50354,123.00867 z"
       style="fill:url(#radialGradient4259);fill-opacity:1;stroke:none;filter:url(#filter4239)"
       transform="matrix(1.0969816,-0.42280808,0.42280808,1.0969816,-234.63397,-62.013361)" />
    <path
       style="fill:#000000;fill-opacity:1;stroke:none;filter:url(#filter4324)"
       id="path4310"
       d="m 178.59613,349.8148 c 3.36151,2.84471 6.70565,5.70832 10.13742,8.46828 2.68939,2.25858 5.53876,4.30769 8.39794,6.34203 1.61301,1.22966 3.26855,2.4159 4.84426,3.69361 1.69776,1.48617 3.15707,3.21343 4.9482,4.59111 1.64917,1.27179 3.31796,2.50381 5.04664,3.66593 1.54656,1.18254 3.04879,2.42064 4.55493,3.6537 1.89615,1.34727 3.69553,2.81614 5.51949,4.25735 1.76904,1.42371 3.75996,2.52279 5.67691,3.72666 1.45453,1.07339 3.01262,1.98295 4.55647,2.91986 1.01591,0.68518 2.05785,1.31971 3.11604,1.93664 0,0 -1.0289,17.98977 -1.0289,17.98977 l 0,0 c -0.98253,-0.70314 -2.13127,-1.12807 -3.02937,-1.96184 -1.58753,-0.8755 -3.22107,-1.75867 -4.61119,-2.92143 -1.97925,-1.20922 -3.96783,-2.42142 -5.84692,-3.78498 -1.88072,-1.38291 -3.5849,-3.00267 -5.59111,-4.21839 -1.47835,-1.22614 -2.98829,-2.39527 -4.44595,-3.63999 -1.62824,-1.28531 -3.50639,-2.25035 -5.01965,-3.6982 -1.93675,-1.26499 -3.47897,-2.9411 -5.12558,-4.55185 -1.47491,-1.35828 -3.17313,-2.43407 -4.67448,-3.76314 -2.90366,-2.07629 -5.74235,-4.25608 -8.49452,-6.53118 -3.35575,-2.73434 -6.66583,-5.52167 -10.04525,-8.22655 0,0 1.11462,-17.94739 1.11462,-17.94739 z"
       transform="matrix(1.0969816,-0.42280808,0.42280808,1.0969816,-234.63397,-62.013361)" />
    <path
       style="fill:none;stroke:#000000;stroke-width:15;stroke-linecap:butt;stroke-linejoin:miter;stroke-miterlimit:4;stroke-opacity:1;stroke-dasharray:none;filter:url(#filter4346)"
       d="m 216.58895,391.53967 c -5.50061,42.46943 -1.29888,90.15988 13.13198,122.22846"
       id="path4336"
       transform="matrix(1.0969816,-0.42280808,0.42280808,1.0969816,-234.63397,-62.013361)" />
    <path
       transform="matrix(1.1556178,-0.44540815,0.44540815,1.1556178,-345.91736,-468.26944)"
       d="m 435.71428,597.85712 a 53.57143,52.142857 0 1 1 -107.14286,0 53.57143,52.142857 0 1 1 107.14286,0 z"
       sodipodi:ry="52.142857"
       sodipodi:rx="53.57143"
       sodipodi:cy="597.85712"
       sodipodi:cx="382.14285"
       id="path3830-9"
       style="fill:#e376a0;fill-opacity:1;stroke:#000000;stroke-width:4.55075169;stroke-miterlimit:4;stroke-opacity:1;stroke-dasharray:none;filter:url(#filter3936-0)"
       sodipodi:type="arc" />
    <path
       transform="matrix(0.36305201,0.25824317,-0.30982008,0.46644566,-55.19258,-416.89127)"
       style="fill:#9d3558;fill-opacity:1;stroke:none;filter:url(#filter3977-0)"
       d="m 1492.8571,254.28572 c 0,60.75132 -61.7207,110 -137.8571,110 -76.1364,0 -137.8571,-49.24868 -137.8571,-110 0,-19.30903 6.3698,-38.27788 18.4693,-55 27.4074,36.60094 35.0359,57.07128 118.5222,79.49311 74.5263,16.5735 94.5018,-12.59621 138.7227,-24.49311 z"
       id="path3930-0-3"
       sodipodi:nodetypes="cssccc" />
    <path
       sodipodi:type="arc"
       style="fill:#ffffff;fill-opacity:1;stroke:none;filter:url(#filter3867-9)"
       id="path3845-7"
       sodipodi:cx="382.14285"
       sodipodi:cy="597.85712"
       sodipodi:rx="53.57143"
       sodipodi:ry="52.142857"
       d="m 435.71428,597.85712 c 0,28.7977 -23.98474,52.14285 -53.57143,52.14285 -29.58668,0 -53.57143,-23.34515 -53.57143,-52.14285 0,-28.79771 23.98475,-52.14286 53.57143,-52.14286 29.58669,0 53.57143,23.34515 53.57143,52.14286 z"
       transform="matrix(0.53916566,0,0,0.53916566,328.50345,-200.90357)" />
    <path
       style="fill:#ffffff;fill-opacity:1;stroke:#000000;stroke-width:5;stroke-miterlimit:4;stroke-opacity:1;stroke-dasharray:none;filter:url(#filter4552)"
       d="m 422.4075,313.48509 c 0,8.64732 -4.5111,13.63705 -12.8795,13.63705 -8.3683,0 -22.7751,-4.0444 -15.1523,-15.65736 3.8363,-5.8444 6.2415,-13.45938 14.1421,-14.39468 8.3104,-0.98381 13.8897,7.76766 13.8897,16.41499 z"
       id="path4513"
       sodipodi:nodetypes="csssc"
       transform="matrix(1.0969816,-0.42280808,0.42280808,1.0969816,-234.63397,-62.013361)" />
    <path
       transform="matrix(1.2211191,-0.20666191,-0.20666191,-1.2211191,288.12221,1295.7245)"
       d="m 435.71428,597.85712 a 53.57143,52.142857 0 1 1 -107.14286,0 53.57143,52.142857 0 1 1 107.14286,0 z"
       sodipodi:ry="52.142857"
       sodipodi:rx="53.57143"
       sodipodi:cy="597.85712"
       sodipodi:cx="382.14285"
       id="path3830-2"
       style="fill:#e376a0;fill-opacity:1;stroke:#000000;stroke-width:4.55075169000000024;stroke-miterlimit:4;stroke-opacity:1;stroke-dasharray:none;"
       sodipodi:type="arc" />
    <path
       style="fill:#9d3558;fill-opacity:1;stroke:none"
       d="m 671.84662,528.90272 c 24.33367,-20.93549 26.51696,-57.02574 4.8765,-80.60984 -21.64046,-23.5841 -58.90984,-25.73121 -83.24351,-4.79571 -7.73414,6.65408 -13.52152,15.16404 -16.78041,24.6746 22.45042,-4.12329 32.81799,-8.81455 65.52849,9.31948 27.82126,17.37397 21.81515,33.61376 29.61893,51.41147 z"
       id="path3930-0-7"
       sodipodi:nodetypes="cssccc" />
    <path
       style="fill:none;stroke:#000000;stroke-width:7.10889149;stroke-linecap:butt;stroke-linejoin:miter;stroke-miterlimit:4;stroke-opacity:1;stroke-dasharray:none"
       d="m 157.99072,528.26103 c 78.68307,27.65993 138.58645,18.65712 168.88709,11.60153"
       id="path4616"
       sodipodi:nodetypes="cc" />
    <path
       style="fill:none;stroke:#000000;stroke-width:5;stroke-linecap:butt;stroke-linejoin:miter;stroke-miterlimit:4;stroke-opacity:1;stroke-dasharray:none;"
       d="m 170.10841,634.95018 c 25.83712,-21.12562 68.34187,-34.09387 97.98238,-31.27096"
       id="path4644"
       sodipodi:nodetypes="cc"
       transform="matrix(1.2091703,-0.55535421,-0.48138902,-1.3949587,294.43892,1481.2006)" />
    <path
       style="fill:none;stroke:#000000;stroke-width:5;stroke-linecap:butt;stroke-linejoin:miter;stroke-miterlimit:4;stroke-opacity:1;stroke-dasharray:none;"
       d="m 353.68316,569.62941 c 34.92954,9.02062 91.49945,-0.46941 108.07896,-13.36485"
       id="path4743"
       sodipodi:nodetypes="cc"
       transform="matrix(1.1591593,-0.19617586,-0.19617586,-1.1591593,152.42351,1180.3487)" />
    <path
       style="fill:none;stroke:#000000;stroke-width:4.66613339999999965;stroke-linecap:butt;stroke-linejoin:miter;stroke-miterlimit:4;stroke-opacity:1;stroke-dasharray:none;"
       d="m 556.97818,570.94144 c 49.22218,18.77198 132.9241,5.52314 160.21519,-20.39245"
       id="path4745"
       sodipodi:nodetypes="cc"
       transform="matrix(1.2420983,-0.21021244,-0.21021244,-1.2420983,-170.89217,1260.8928)" />
    <path
       style="opacity:0.7;fill:#ffdd55;fill-opacity:1;stroke:none;filter:url(#filter3683-0-8)"
       d="m 958.16016,94.011906 c 4.0406,-2.78395 -50.6696,36.812614 -96.97463,36.812614 -46.30502,0 -83.84265,-17.63817 -83.84265,-39.395944 0,-21.75778 37.53763,-39.39595 83.84265,-39.39595 46.30503,0 91.92383,34.42988 96.97463,41.97928 z"
       id="path3680-5"
       sodipodi:nodetypes="csssc"
       transform="matrix(0.17192943,-0.31397242,0.38168143,0.10402007,1666.1843,701.46045)" />
    <path
       style="opacity:0.7;fill:#ffcc00;fill-opacity:1;stroke:none;filter:url(#filter3740-0)"
       d="m 962.44588,97.583334 c 4.0406,-2.783948 -50.6696,36.812616 -96.97462,36.812616 -46.30502,0 -83.84265,-17.63817 -83.84265,-39.39595 0,-21.757781 37.53763,-39.395947 83.84265,-39.395947 46.30502,0 91.92382,34.429878 96.97462,41.979281 z"
       id="path3680-50"
       sodipodi:nodetypes="csssc"
       transform="matrix(0.14470077,-0.26424827,0.32123414,0.08754629,1693.3476,663.62121)" />
    <path
       style="fill:none;stroke:#a0892c;stroke-width:6.52489805;stroke-linecap:butt;stroke-linejoin:miter;stroke-miterlimit:4;stroke-opacity:1;stroke-dasharray:none"
       d="m 1787.0421,480.08041 c 14.8166,-33.21947 39.0267,7.6378 57.326,-25.63353"
       id="path2873" />
    <rect
       style="fill:#cccccc;fill-opacity:1;stroke:none"
       id="rect3736"
       width="88.552185"
       height="79.230904"
       x="1591.4159"
       y="-865.18787"
       transform="matrix(0.73620434,0.67675931,-0.67675931,0.73620434,0,0)"
       ry="10.016501" />
    <path
       id="path3647"
       d="m 718.42395,276.61034 c 45.41563,-101.82372 119.6238,23.41128 175.71429,-78.57143"
       style="fill:none;stroke:#786721;stroke-width:20;stroke-linecap:butt;stroke-linejoin:miter;stroke-miterlimit:4;stroke-opacity:1;stroke-dasharray:none;filter:url(#filter3665-9)"
       transform="matrix(0.32624489,0,0,0.32624489,1552.6599,389.83771)" />
    <path
       style="opacity:0.7;fill:#aa0000;fill-opacity:1;stroke:none;filter:url(#filter3683-9)"
       d="m 975.34177,117.97687 c 4.0406,-2.78395 -50.6696,36.81261 -96.97463,36.81261 -46.30502,0 -83.84265,-17.63817 -83.84265,-39.39595 0,-21.757777 37.53763,-39.395943 83.84265,-39.395943 46.30503,0 91.92383,34.429873 96.97463,41.979283 z"
       id="path3680"
       sodipodi:nodetypes="csssc"
       transform="matrix(0.11191349,-0.20437309,0.24285076,0.06618439,1720.8283,619.27225)" />
    <rect
       ry="8.5200233"
       transform="matrix(0.8655131,0.795627,-0.795627,0.8655131,770.49912,120.44548)"
       y="-367.81412"
       x="801.82416"
       height="67.393707"
       width="75.322372"
       id="rect2860"
       style="fill:url(#linearGradient5474);fill-opacity:1;stroke:none;filter:url(#filter5492)" />
    <path
       transform="matrix(0.37052313,0,0,0.3911961,1465.3383,364.3099)"
       d="m 965.71426,584.28571 a 351.42856,332.85715 0 1 1 -702.85711,0 351.42856,332.85715 0 1 1 702.85711,0 z"
       sodipodi:ry="332.85715"
       sodipodi:rx="351.42856"
       sodipodi:cy="584.28571"
       sodipodi:cx="614.28571"
       id="path2816"
       style="fill:url(#radialGradient5478);fill-opacity:1;stroke:none;filter:url(#filter5480)"
       sodipodi:type="arc" />
    <path
       style="opacity:0.8;fill:url(#linearGradient5476);fill-opacity:1;stroke:none;filter:url(#filter5488)"
       d="m 612.57529,363.97307 c 0,29.2044 -29.6266,29.88608 -67.1509,29.88608 -37.5243,0 -68.7365,-0.68168 -68.7365,-29.88608 0,-29.20439 30.4194,-52.87923 67.9436,-52.87923 37.5243,0 67.9438,23.67484 67.9438,52.87923 z"
       id="path3722"
       sodipodi:nodetypes="csssc"
       transform="matrix(1.1756425,0,0,1.1756425,1052.6533,96.932627)" />
    <path
       style="fill:none;stroke:#000000;stroke-width:3;stroke-linecap:butt;stroke-linejoin:miter;stroke-miterlimit:4;stroke-opacity:1;stroke-dasharray:none;filter:url(#filter3827)"
       d="m 119.28571,893.07647 c 40.88597,20.19472 77.24668,49.9011 97.14288,85.71429"
       id="path3049" />
    <path
       style="fill:#000000;fill-opacity:1;stroke:none;filter:url(#filter4324-3)"
       id="path4310-7"
       d="m 178.59613,349.8148 c 3.36151,2.84471 6.70565,5.70832 10.13742,8.46828 2.68939,2.25858 5.53876,4.30769 8.39794,6.34203 1.61301,1.22966 3.26855,2.4159 4.84426,3.69361 1.69776,1.48617 3.15707,3.21343 4.9482,4.59111 1.64917,1.27179 3.31796,2.50381 5.04664,3.66593 1.54656,1.18254 3.04879,2.42064 4.55493,3.6537 1.89615,1.34727 3.69553,2.81614 5.51949,4.25735 1.76904,1.42371 3.75996,2.52279 5.67691,3.72666 1.45453,1.07339 3.01262,1.98295 4.55647,2.91986 1.01591,0.68518 2.05785,1.31971 3.11604,1.93664 0,0 -1.0289,17.98977 -1.0289,17.98977 l 0,0 c -0.98253,-0.70314 -2.13127,-1.12807 -3.02937,-1.96184 -1.58753,-0.8755 -3.22107,-1.75867 -4.61119,-2.92143 -1.97925,-1.20922 -3.96783,-2.42142 -5.84692,-3.78498 -1.88072,-1.38291 -3.5849,-3.00267 -5.59111,-4.21839 -1.47835,-1.22614 -2.98829,-2.39527 -4.44595,-3.63999 -1.62824,-1.28531 -3.50639,-2.25035 -5.01965,-3.6982 -1.93675,-1.26499 -3.47897,-2.9411 -5.12558,-4.55185 -1.47491,-1.35828 -3.17313,-2.43407 -4.67448,-3.76314 -2.90366,-2.07629 -5.74235,-4.25608 -8.49452,-6.53118 -3.35575,-2.73434 -6.66583,-5.52167 -10.04525,-8.22655 0,0 1.11462,-17.94739 1.11462,-17.94739 z"
       transform="matrix(-1.0969816,0.42280808,0.42280808,1.0969816,366.9161,-300.82371)" />
    <path
       style="fill:none;stroke:#000000;stroke-width:15;stroke-linecap:butt;stroke-linejoin:miter;stroke-miterlimit:4;stroke-opacity:1;stroke-dasharray:none;filter:url(#filter4346-7)"
       d="m 216.58895,391.53967 c -11.57632,42.46943 -19.526,91.37502 -5.09514,123.4436"
       id="path4336-3"
       transform="matrix(-1.0969816,0.42280808,0.42280808,1.0969816,366.9161,-300.82371)"
       sodipodi:nodetypes="cc" />
    <path
       style="fill:#800000;fill-opacity:1;stroke:none"
       d="m 245.37731,490.33706 c -23.11148,-1.48193 -52.66722,-7.15768 -74.93599,-14.39036 l -3.21517,-1.04425 3.97278,-2.29478 c 7.9474,-4.59061 15.52276,-11.10311 20.45504,-17.58508 l 1.96012,-2.57597 5.42602,1.64167 c 7.69401,2.32786 16.3449,4.19438 25.124,5.42077 10.41801,1.45535 35.30545,1.55827 45.96194,0.19009 18.47901,-2.37251 36.26407,-7.11871 49.24363,-13.14136 2.08272,-0.96641 3.84578,-1.69808 3.91792,-1.62595 0.0721,0.0721 -0.0988,3.94546 -0.37995,8.60738 -0.36642,6.07691 -0.34397,11.13939 0.0793,17.88454 0.32472,5.17458 0.60993,10.19202 0.63379,11.14987 l 0.0434,1.74154 -4.29315,0.89475 c -8.04907,1.67753 -23.46867,3.91528 -32.32488,4.6911 -7.9749,0.69861 -33.42103,0.96489 -41.6688,0.43604 l -1e-5,0 z"
       id="path4326"
       transform="translate(0,52.362183)" />
    <path
       style="fill:#800000;fill-opacity:1;stroke:none"
       d="m 450.08448,394.1918 c -0.70633,-1.14286 -8.67203,-6.30421 -13.29682,-8.61563 -6.05507,-3.02627 -9.93594,-4.3727 -16.76342,-5.81591 l -5.26125,-1.11214 5.26125,-2.18923 c 19.38665,-8.06688 43.25579,-13.66342 70.41608,-16.51028 10.90423,-1.14295 41.85036,-1.2991 52.2754,-0.26377 15.41086,1.53048 29.22324,4.28799 40.87656,8.16063 5.5179,1.83371 13.69902,5.43115 14.82153,6.51738 0.21573,0.20877 -0.74816,1.00025 -2.14198,1.75887 -3.48742,1.89809 -9.7729,6.61998 -13.69117,10.28533 -3.08896,2.88958 -3.33491,3.01965 -4.52774,2.39466 -4.05988,-2.12718 -14.87114,-4.78654 -24.74188,-6.08602 -8.45174,-1.11267 -32.83621,-1.55037 -42.75059,-0.76737 -21.06373,1.66352 -38.55134,5.02762 -52.69755,10.13746 -7.62002,2.75247 -7.41346,2.69654 -7.77842,2.10602 z"
       id="path4328"
       transform="translate(0,52.362183)" />
  </g>
</svg>
