<?xml version="1.0" encoding="UTF-8" standalone="no"?>
<!-- Created with Inkscape (http://www.inkscape.org/) -->

<svg
   xmlns:dc="http://purl.org/dc/elements/1.1/"
   xmlns:cc="http://creativecommons.org/ns#"
   xmlns:rdf="http://www.w3.org/1999/02/22-rdf-syntax-ns#"
   xmlns:svg="http://www.w3.org/2000/svg"
   xmlns="http://www.w3.org/2000/svg"
   xmlns:xlink="http://www.w3.org/1999/xlink"
   xmlns:sodipodi="http://sodipodi.sourceforge.net/DTD/sodipodi-0.dtd"
   xmlns:inkscape="http://www.inkscape.org/namespaces/inkscape"
   width="1000"
   height="1000"
   id="svg2"
   version="1.1"
   inkscape:version="0.48.4 r9939"
   sodipodi:docname="player_moving_left_4.svg">
  <defs
     id="defs4">
    <linearGradient
       inkscape:collect="always"
       id="linearGradient4253">
      <stop
         style="stop-color:#ffffff;stop-opacity:1"
         offset="0"
         id="stop4255" />
      <stop
         style="stop-color:#edcaa4;stop-opacity:0;"
         offset="1"
         id="stop4257" />
    </linearGradient>
    <linearGradient
       inkscape:collect="always"
       id="linearGradient4186">
      <stop
         style="stop-color:#f9f9f9;stop-opacity:0.84518828"
         offset="0"
         id="stop4188" />
      <stop
         style="stop-color:#807aba;stop-opacity:0;"
         offset="1"
         id="stop4190" />
    </linearGradient>
    <linearGradient
       inkscape:collect="always"
       id="linearGradient3873">
      <stop
         style="stop-color:#a94466;stop-opacity:1;"
         offset="0"
         id="stop3875" />
      <stop
         style="stop-color:#e4749f;stop-opacity:1"
         offset="1"
         id="stop3877" />
    </linearGradient>
    <inkscape:perspective
       sodipodi:type="inkscape:persp3d"
       inkscape:vp_x="0 : 526.18109 : 1"
       inkscape:vp_y="0 : 1000 : 0"
       inkscape:vp_z="744.09448 : 526.18109 : 1"
       inkscape:persp3d-origin="372.04724 : 350.78739 : 1"
       id="perspective10" />
    <inkscape:perspective
       id="perspective3040"
       inkscape:persp3d-origin="0.5 : 0.33333333 : 1"
       inkscape:vp_z="1 : 0.5 : 1"
       inkscape:vp_y="0 : 1000 : 0"
       inkscape:vp_x="0 : 0.5 : 1"
       sodipodi:type="inkscape:persp3d" />
    <radialGradient
       inkscape:collect="always"
       xlink:href="#linearGradient3873"
       id="radialGradient3879"
       cx="407.09671"
       cy="617.58893"
       fx="407.09671"
       fy="617.58893"
       r="306.12509"
       gradientTransform="matrix(0.30633431,-0.54130701,0.45300649,0.25636363,5.5205225,727.25636)"
       gradientUnits="userSpaceOnUse" />
    <inkscape:perspective
       id="perspective3952"
       inkscape:persp3d-origin="0.5 : 0.33333333 : 1"
       inkscape:vp_z="1 : 0.5 : 1"
       inkscape:vp_y="0 : 1000 : 0"
       inkscape:vp_x="0 : 0.5 : 1"
       sodipodi:type="inkscape:persp3d" />
    <inkscape:perspective
       id="perspective4023"
       inkscape:persp3d-origin="0.5 : 0.33333333 : 1"
       inkscape:vp_z="1 : 0.5 : 1"
       inkscape:vp_y="0 : 1000 : 0"
       inkscape:vp_x="0 : 0.5 : 1"
       sodipodi:type="inkscape:persp3d" />
    <filter
       inkscape:collect="always"
       id="filter4072"
       x="-0.19686391"
       width="1.3937278"
       y="-0.17839073"
       height="1.3567815">
      <feGaussianBlur
         inkscape:collect="always"
         stdDeviation="4.60236"
         id="feGaussianBlur4074" />
    </filter>
    <inkscape:perspective
       id="perspective4101"
       inkscape:persp3d-origin="0.5 : 0.33333333 : 1"
       inkscape:vp_z="1 : 0.5 : 1"
       inkscape:vp_y="0 : 1000 : 0"
       inkscape:vp_x="0 : 0.5 : 1"
       sodipodi:type="inkscape:persp3d" />
    <filter
       color-interpolation-filters="sRGB"
       inkscape:collect="always"
       id="filter4072-7"
       x="-0.1968639"
       width="1.3937278"
       y="-0.17839073"
       height="1.3567815">
      <feGaussianBlur
         inkscape:collect="always"
         stdDeviation="4.60236"
         id="feGaussianBlur4074-5" />
    </filter>
    <inkscape:perspective
       id="perspective4129"
       inkscape:persp3d-origin="0.5 : 0.33333333 : 1"
       inkscape:vp_z="1 : 0.5 : 1"
       inkscape:vp_y="0 : 1000 : 0"
       inkscape:vp_x="0 : 0.5 : 1"
       sodipodi:type="inkscape:persp3d" />
    <filter
       inkscape:collect="always"
       id="filter4153">
      <feGaussianBlur
         inkscape:collect="always"
         stdDeviation="3.0025053"
         id="feGaussianBlur4155" />
    </filter>
    <radialGradient
       inkscape:collect="always"
       xlink:href="#linearGradient4186"
       id="radialGradient4192"
       cx="592.57983"
       cy="573.17139"
       fx="592.57983"
       fy="573.17139"
       r="67.286976"
       gradientTransform="matrix(2.7608623,0.82245591,-0.53630539,1.7364827,-764.87245,-822.33431)"
       gradientUnits="userSpaceOnUse" />
    <filter
       inkscape:collect="always"
       id="filter4204"
       x="-0.038367527"
       width="1.0767351"
       y="-0.19645829"
       height="1.3929166">
      <feGaussianBlur
         inkscape:collect="always"
         stdDeviation="2.0670008"
         id="feGaussianBlur4206" />
    </filter>
    <filter
       inkscape:collect="always"
       id="filter4239">
      <feGaussianBlur
         inkscape:collect="always"
         stdDeviation="2.4181293"
         id="feGaussianBlur4241" />
    </filter>
    <radialGradient
       inkscape:collect="always"
       xlink:href="#linearGradient4253"
       id="radialGradient4259"
       cx="610.49249"
       cy="479.80173"
       fx="610.49249"
       fy="479.80173"
       r="136.88248"
       gradientTransform="matrix(1.0032273,-0.89936507,0.77867728,0.86859498,-639.4899,581.70499)"
       gradientUnits="userSpaceOnUse" />
    <filter
       inkscape:collect="always"
       id="filter4324"
       x="-0.11684767"
       width="1.2336953"
       y="-0.11049059"
       height="1.2209812">
      <feGaussianBlur
         inkscape:collect="always"
         stdDeviation="2.819579"
         id="feGaussianBlur4326" />
    </filter>
    <filter
       inkscape:collect="always"
       id="filter4346"
       x="-0.2671988"
       width="1.5343976"
       y="-0.033794286"
       height="1.0675886">
      <feGaussianBlur
         inkscape:collect="always"
         stdDeviation="1.7210931"
         id="feGaussianBlur4348" />
    </filter>
    <inkscape:perspective
       id="perspective4422"
       inkscape:persp3d-origin="0.5 : 0.33333333 : 1"
       inkscape:vp_z="1 : 0.5 : 1"
       inkscape:vp_y="0 : 1000 : 0"
       inkscape:vp_x="0 : 0.5 : 1"
       sodipodi:type="inkscape:persp3d" />
    <filter
       color-interpolation-filters="sRGB"
       inkscape:collect="always"
       id="filter3936-0">
      <feGaussianBlur
         inkscape:collect="always"
         stdDeviation="1.0571429"
         id="feGaussianBlur3938-9" />
    </filter>
    <inkscape:perspective
       id="perspective4450"
       inkscape:persp3d-origin="0.5 : 0.33333333 : 1"
       inkscape:vp_z="1 : 0.5 : 1"
       inkscape:vp_y="0 : 1000 : 0"
       inkscape:vp_x="0 : 0.5 : 1"
       sodipodi:type="inkscape:persp3d" />
    <filter
       color-interpolation-filters="sRGB"
       inkscape:collect="always"
       id="filter3977-0">
      <feGaussianBlur
         inkscape:collect="always"
         stdDeviation="7.6776642"
         id="feGaussianBlur3979-9" />
    </filter>
    <inkscape:perspective
       id="perspective4478"
       inkscape:persp3d-origin="0.5 : 0.33333333 : 1"
       inkscape:vp_z="1 : 0.5 : 1"
       inkscape:vp_y="0 : 1000 : 0"
       inkscape:vp_x="0 : 0.5 : 1"
       sodipodi:type="inkscape:persp3d" />
    <filter
       color-interpolation-filters="sRGB"
       inkscape:collect="always"
       id="filter3867-9"
       x="-0.39953908"
       width="1.7990782"
       y="-0.41048539"
       height="1.8209708">
      <feGaussianBlur
         inkscape:collect="always"
         stdDeviation="17.836567"
         id="feGaussianBlur3869-8" />
    </filter>
    <filter
       inkscape:collect="always"
       id="filter4552"
       x="-0.21282973"
       width="1.4256595"
       y="-0.21324474"
       height="1.4264895">
      <feGaussianBlur
         inkscape:collect="always"
         stdDeviation="2.6769257"
         id="feGaussianBlur4554" />
    </filter>
    <inkscape:perspective
       id="perspective4564"
       inkscape:persp3d-origin="0.5 : 0.33333333 : 1"
       inkscape:vp_z="1 : 0.5 : 1"
       inkscape:vp_y="0 : 1000 : 0"
       inkscape:vp_x="0 : 0.5 : 1"
       sodipodi:type="inkscape:persp3d" />
    <inkscape:perspective
       id="perspective4592"
       inkscape:persp3d-origin="0.5 : 0.33333333 : 1"
       inkscape:vp_z="1 : 0.5 : 1"
       inkscape:vp_y="0 : 1000 : 0"
       inkscape:vp_x="0 : 0.5 : 1"
       sodipodi:type="inkscape:persp3d" />
    <inkscape:perspective
       id="perspective4626"
       inkscape:persp3d-origin="0.5 : 0.33333333 : 1"
       inkscape:vp_z="1 : 0.5 : 1"
       inkscape:vp_y="0 : 1000 : 0"
       inkscape:vp_x="0 : 0.5 : 1"
       sodipodi:type="inkscape:persp3d" />
    <inkscape:perspective
       id="perspective4658"
       inkscape:persp3d-origin="0.5 : 0.33333333 : 1"
       inkscape:vp_z="1 : 0.5 : 1"
       inkscape:vp_y="0 : 1000 : 0"
       inkscape:vp_x="0 : 0.5 : 1"
       sodipodi:type="inkscape:persp3d" />
    <inkscape:perspective
       id="perspective4697"
       inkscape:persp3d-origin="0.5 : 0.33333333 : 1"
       inkscape:vp_z="1 : 0.5 : 1"
       inkscape:vp_y="0 : 1000 : 0"
       inkscape:vp_x="0 : 0.5 : 1"
       sodipodi:type="inkscape:persp3d" />
    <filter
       inkscape:collect="always"
       id="filter4770">
      <feGaussianBlur
         inkscape:collect="always"
         stdDeviation="3.0029635"
         id="feGaussianBlur4772" />
    </filter>
    <inkscape:perspective
       id="perspective5291"
       inkscape:persp3d-origin="0.5 : 0.33333333 : 1"
       inkscape:vp_z="1 : 0.5 : 1"
       inkscape:vp_y="0 : 1000 : 0"
       inkscape:vp_x="0 : 0.5 : 1"
       sodipodi:type="inkscape:persp3d" />
    <filter
       id="filter3665-9"
       x="-0.25"
       width="1.5"
       y="-0.25"
       height="1.5"
       inkscape:menu="Non realistic 3D shaders"
       inkscape:menu-tooltip="Combination of smooth shading and embossing"
       inkscape:label="Emboss shader"
       color-interpolation-filters="sRGB">
      <feGaussianBlur
         id="feGaussianBlur3667-5"
         result="result8"
         stdDeviation="5" />
      <feComposite
         id="feComposite3669-6"
         in2="result8"
         in="result8"
         operator="xor"
         result="result6" />
      <feDisplacementMap
         id="feDisplacementMap3671-6"
         in2="result6"
         result="result4"
         scale="100"
         yChannelSelector="A"
         xChannelSelector="A"
         in="result8" />
      <feComposite
         k4="0"
         k3="0"
         k2="0"
         id="feComposite3673-5"
         in2="result4"
         k1="1"
         in="result4"
         operator="arithmetic"
         result="result2" />
      <feComposite
         id="feComposite3675-5"
         in2="result8"
         operator="in"
         in="result2"
         result="fbSourceGraphic" />
    </filter>
    <linearGradient
       inkscape:collect="always"
       id="linearGradient2862-1">
      <stop
         style="stop-color:#cccccc;stop-opacity:1;"
         offset="0"
         id="stop2864-8" />
      <stop
         style="stop-color:#000000;stop-opacity:1"
         offset="1"
         id="stop2866-8" />
    </linearGradient>
    <linearGradient
       inkscape:collect="always"
       id="linearGradient3714">
      <stop
         style="stop-color:#e6e6e6;stop-opacity:1;"
         offset="0"
         id="stop3716" />
      <stop
         style="stop-color:#000000;stop-opacity:1"
         offset="1"
         id="stop3718" />
    </linearGradient>
    <linearGradient
       inkscape:collect="always"
       id="linearGradient3727">
      <stop
         style="stop-color:#ffffff;stop-opacity:1;"
         offset="0"
         id="stop3729" />
      <stop
         style="stop-color:#ffffff;stop-opacity:0;"
         offset="1"
         id="stop3731" />
    </linearGradient>
    <linearGradient
       inkscape:collect="always"
       xlink:href="#linearGradient2862-1"
       id="linearGradient5474"
       gradientUnits="userSpaceOnUse"
       gradientTransform="matrix(0.27750349,0,0,0.27750349,647.39882,-276.54543)"
       x1="510.78967"
       y1="-269.70569"
       x2="712.00769"
       y2="-303.29407" />
    <linearGradient
       inkscape:collect="always"
       xlink:href="#linearGradient3727"
       id="linearGradient5476"
       gradientUnits="userSpaceOnUse"
       gradientTransform="matrix(0.19333571,0,0,0.1588646,425.86819,271.15074)"
       x1="614.28571"
       y1="21.850126"
       x2="614.28571"
       y2="772.40863" />
    <radialGradient
       inkscape:collect="always"
       xlink:href="#linearGradient3714"
       id="radialGradient5478"
       gradientUnits="userSpaceOnUse"
       gradientTransform="matrix(0.42593187,0.66785211,-0.85595564,0.48972551,520.07134,-85.165459)"
       cx="404.22406"
       cy="336.48843"
       fx="404.22406"
       fy="336.48843"
       r="351.42856" />
    <inkscape:perspective
       id="perspective3043"
       inkscape:persp3d-origin="0.5 : 0.33333333 : 1"
       inkscape:vp_z="1 : 0.5 : 1"
       inkscape:vp_y="0 : 1000 : 0"
       inkscape:vp_x="0 : 0.5 : 1"
       sodipodi:type="inkscape:persp3d" />
    <filter
       inkscape:collect="always"
       id="filter3827">
      <feGaussianBlur
         inkscape:collect="always"
         stdDeviation="2.6337451"
         id="feGaussianBlur3829" />
    </filter>
    <inkscape:perspective
       id="perspective4287"
       inkscape:persp3d-origin="0.5 : 0.33333333 : 1"
       inkscape:vp_z="1 : 0.5 : 1"
       inkscape:vp_y="0 : 1000 : 0"
       inkscape:vp_x="0 : 0.5 : 1"
       sodipodi:type="inkscape:persp3d" />
    <filter
       color-interpolation-filters="sRGB"
       inkscape:collect="always"
       id="filter4346-7"
       x="-0.2671988"
       width="1.5343976"
       y="-0.033794288"
       height="1.0675886">
      <feGaussianBlur
         inkscape:collect="always"
         stdDeviation="1.7210931"
         id="feGaussianBlur4348-2" />
    </filter>
    <filter
       color-interpolation-filters="sRGB"
       inkscape:collect="always"
       id="filter4324-3"
       x="-0.11684767"
       width="1.2336953"
       y="-0.11049059"
       height="1.2209812">
      <feGaussianBlur
         inkscape:collect="always"
         stdDeviation="2.819579"
         id="feGaussianBlur4326-3" />
    </filter>
    <filter
       inkscape:collect="always"
       id="filter4380">
      <feGaussianBlur
         inkscape:collect="always"
         stdDeviation="4.352227"
         id="feGaussianBlur4382" />
    </filter>
    <filter
       inkscape:collect="always"
       id="filter4384">
      <feGaussianBlur
         inkscape:collect="always"
         stdDeviation="3.2259254"
         id="feGaussianBlur4386" />
    </filter>
    <filter
       inkscape:collect="always"
       id="filter4388"
       x="-0.090886375"
       width="1.1817728"
       y="-0.10465863"
       height="1.2093173">
      <feGaussianBlur
         inkscape:collect="always"
         stdDeviation="4.352227"
         id="feGaussianBlur4390" />
    </filter>
    <filter
       inkscape:collect="always"
       id="filter4392">
      <feGaussianBlur
         inkscape:collect="always"
         stdDeviation="3.5141586"
         id="feGaussianBlur4394" />
    </filter>
    <filter
       inkscape:collect="always"
       id="filter4396"
       x="-0.18142181"
       width="1.3628436"
       y="-0.18501947"
       height="1.3700389">
      <feGaussianBlur
         inkscape:collect="always"
         stdDeviation="8.0721515"
         id="feGaussianBlur4398" />
    </filter>
    <filter
       inkscape:collect="always"
       id="filter4400"
       x="-0.11150763"
       width="1.2230153"
       y="-0.091854029"
       height="1.1837081">
      <feGaussianBlur
         inkscape:collect="always"
         stdDeviation="4.352227"
         id="feGaussianBlur4402" />
    </filter>
    <filter
       inkscape:collect="always"
       id="filter4408">
      <feGaussianBlur
         inkscape:collect="always"
         stdDeviation="1.0574699"
         id="feGaussianBlur4410" />
    </filter>
    <filter
       inkscape:collect="always"
       id="filter4416">
      <feGaussianBlur
         inkscape:collect="always"
         stdDeviation="1.8691999"
         id="feGaussianBlur4418" />
    </filter>
    <filter
       inkscape:collect="always"
       id="filter4420">
      <feGaussianBlur
         inkscape:collect="always"
         stdDeviation="1.5963256"
         id="feGaussianBlur4422" />
    </filter>
    <filter
       inkscape:collect="always"
       id="filter4448">
      <feGaussianBlur
         inkscape:collect="always"
         stdDeviation="1.9689495"
         id="feGaussianBlur4450" />
    </filter>
    <filter
       inkscape:collect="always"
       id="filter4452">
      <feGaussianBlur
         inkscape:collect="always"
         stdDeviation="1.9689495"
         id="feGaussianBlur4454" />
    </filter>
    <filter
       inkscape:collect="always"
       id="filter4456">
      <feGaussianBlur
         inkscape:collect="always"
         stdDeviation="1.9689495"
         id="feGaussianBlur4458" />
    </filter>
    <filter
       inkscape:collect="always"
       id="filter4472">
      <feGaussianBlur
         inkscape:collect="always"
         stdDeviation="1.6603987"
         id="feGaussianBlur4474" />
    </filter>
    <filter
       inkscape:collect="always"
       id="filter4476">
      <feGaussianBlur
         inkscape:collect="always"
         stdDeviation="1.6603987"
         id="feGaussianBlur4478" />
    </filter>
    <filter
       inkscape:collect="always"
       id="filter4480">
      <feGaussianBlur
         inkscape:collect="always"
         stdDeviation="1.6603987"
         id="feGaussianBlur4482" />
    </filter>
    <filter
       inkscape:collect="always"
       id="filter4484"
       x="-0.051844363"
       width="1.1036887"
       y="-0.39239382"
       height="1.7847876">
      <feGaussianBlur
         inkscape:collect="always"
         stdDeviation="3.4859222"
         id="feGaussianBlur4486" />
    </filter>
    <filter
       inkscape:collect="always"
       id="filter4488"
       x="-0.057378976"
       width="1.114758"
       y="-0.29665296"
       height="1.5933059">
      <feGaussianBlur
         inkscape:collect="always"
         stdDeviation="4.3914284"
         id="feGaussianBlur4490" />
    </filter>
    <filter
       inkscape:collect="always"
       id="filter4492"
       x="-0.082401991"
       width="1.164804"
       y="-0.76143832"
       height="2.5228766">
      <feGaussianBlur
         inkscape:collect="always"
         stdDeviation="3.7353434"
         id="feGaussianBlur4494" />
    </filter>
    <filter
       inkscape:collect="always"
       id="filter4496"
       x="-0.062405174"
       width="1.1248103"
       y="-0.55948939"
       height="2.1189788">
      <feGaussianBlur
         inkscape:collect="always"
         stdDeviation="4.3914284"
         id="feGaussianBlur4498" />
    </filter>
    <filter
       inkscape:collect="always"
       id="filter4500"
       x="-0.074767593"
       width="1.1495352"
       y="-0.57044763"
       height="2.1408953">
      <feGaussianBlur
         inkscape:collect="always"
         stdDeviation="3.1414792"
         id="feGaussianBlur4502" />
    </filter>
    <filter
       inkscape:collect="always"
       id="filter4504"
       x="-0.067371284"
       width="1.1347426"
       y="-0.23067719"
       height="1.4613544">
      <feGaussianBlur
         inkscape:collect="always"
         stdDeviation="4.3914284"
         id="feGaussianBlur4506" />
    </filter>
  </defs>
  <sodipodi:namedview
     id="base"
     pagecolor="#ffffff"
     bordercolor="#666666"
     borderopacity="1.0"
     inkscape:pageopacity="0.0"
     inkscape:pageshadow="2"
     inkscape:zoom="0.7"
     inkscape:cx="321.56395"
     inkscape:cy="501.45888"
     inkscape:document-units="px"
     inkscape:current-layer="layer1"
     showgrid="false"
     inkscape:window-width="1440"
     inkscape:window-height="824"
     inkscape:window-x="0"
     inkscape:window-y="24"
     inkscape:window-maximized="1" />
  <metadata
     id="metadata7">
    <rdf:RDF>
      <cc:Work
         rdf:about="">
        <dc:format>image/svg+xml</dc:format>
        <dc:type
           rdf:resource="http://purl.org/dc/dcmitype/StillImage" />
        <dc:title />
      </cc:Work>
    </rdf:RDF>
  </metadata>
  <g
     inkscape:label="Layer 1"
     inkscape:groupmode="layer"
     id="layer1"
     transform="translate(0,-52.362183)">
    <path
       transform="matrix(1.1506492,-0.45809087,-0.45809087,-1.1506492,74.303357,1463.6917)"
       d="m 435.71428,597.85712 c 0,28.7977 -23.98474,52.14285 -53.57143,52.14285 -29.58668,0 -53.57143,-23.34515 -53.57143,-52.14285 0,-28.79771 23.98475,-52.14286 53.57143,-52.14286 29.58669,0 53.57143,23.34515 53.57143,52.14286 z"
       sodipodi:ry="52.142857"
       sodipodi:rx="53.57143"
       sodipodi:cy="597.85712"
       sodipodi:cx="382.14285"
       id="path3830"
       style="fill:#ffff00;fill-opacity:1;stroke:#000000;stroke-width:4.55075169000000024;stroke-miterlimit:4;stroke-opacity:1;stroke-dasharray:none;filter:url(#filter4408)"
       sodipodi:type="arc" />
    <path
       style="fill:#808000;fill-opacity:1;stroke:none;filter:url(#filter4400)"
       d="m 238.49221,657.79857 c 34.01742,0.2579 60.93996,-24.98853 60.13315,-56.38948 -0.8068,-31.40098 -29.03742,-57.06554 -63.05485,-57.32343 -10.81201,-0.0819 -21.36603,2.4646 -30.60129,7.38382 20.78497,11.45902 32.32808,14.69214 45.76777,49.21961 10.07,30.80727 -6.05177,38.92195 -12.24478,57.10948 z"
       id="path3930-0"
       sodipodi:nodetypes="cssccc" />
    <path
       sodipodi:type="arc"
       style="fill:#ffffff;fill-opacity:1;stroke:none;filter:url(#filter4396)"
       id="path3845"
       sodipodi:cx="382.14285"
       sodipodi:cy="597.85712"
       sodipodi:rx="53.57143"
       sodipodi:ry="52.142857"
       d="m 435.71428,597.85712 c 0,28.7977 -23.98474,52.14285 -53.57143,52.14285 -29.58668,0 -53.57143,-23.34515 -53.57143,-52.14285 0,-28.79771 23.98475,-52.14286 53.57143,-52.14286 29.58669,0 53.57143,23.34515 53.57143,52.14286 z"
       transform="matrix(0.50092767,-0.19942689,-0.19942689,-0.50092767,139.897,992.9394)" />
    <path
       style="fill:#ffff00;fill-opacity:1;stroke:#000000;stroke-width:4.63000011000000011;stroke-linecap:butt;stroke-linejoin:miter;stroke-miterlimit:4;stroke-opacity:1;stroke-dasharray:none;stroke-dashoffset:0;filter:url(#filter4416)"
       d="m 310.8987,970.98283 c 0,29.04457 9.87918,58.60107 -122.38243,57.37807 -65.00037,-0.6011 -108.182952,-37.49616 -108.182952,-66.54067 0,-29.04451 44.376572,-40.67719 107.566762,-49.75278 20.45005,-2.93711 58.523,14.16612 74.56035,7.10535 10.07831,-4.43719 41.4561,13.45137 48.43827,51.81003 z"
       id="path4043"
       sodipodi:nodetypes="cssssc"
       transform="matrix(0.91109241,0.60771009,-0.60771009,0.91109241,766.51796,-87.916846)" />
    <path
       style="fill:#ffff00;fill-opacity:1;stroke:#000000;stroke-width:5;stroke-miterlimit:4;stroke-opacity:1;filter:url(#filter4420)"
       d="m 1531.8001,930.48057 c 1.5746,11.70569 -2.2369,39.39522 -85.7667,46.12019 -94.2303,7.58646 -109.6015,-10.43018 -109.6015,-46.97209 0,-21.19132 24.7684,-43.56806 38.8591,-50.289 9.244,0.2553 10.104,12.37752 18.6387,8.61621 25.0582,-11.04336 110.1325,-17.94944 137.8704,42.52469 z"
       id="path4082"
       sodipodi:nodetypes="csscsc"
       transform="matrix(0.79366252,0.73962253,0.73962253,-0.79366252,-1057.1852,465.90089)" />
    <path
       style="fill:#808000;fill-opacity:1;stroke:none;filter:url(#filter4153)"
       d="m 1452.8253,953.90514 c 1.5746,11.70569 20.491,20.53619 -63.2876,22.43264 -37.802,0.8557 -53.1058,-10.1672 -53.1058,-46.70911 0,-21.19132 13.515,-31.70916 27.6057,-38.4301 -4.3014,33.55593 18.8963,16.74607 88.7877,62.70657 z"
       id="path4082-4"
       sodipodi:nodetypes="csscc"
       transform="matrix(0.76193375,0.71005415,0.71005415,-0.76193375,-981.39846,485.59296)" />
    <path
       transform="matrix(1.3376226,-0.55952408,0.49951107,1.1518136,-536.60176,320.93258)"
       style="fill:#554991;fill-opacity:1;stroke:#000000;stroke-width:4.78882217;stroke-miterlimit:4;stroke-opacity:1;filter:url(#filter4384)"
       d="m 632.59615,588.33975 c 0,49.93132 -18.75205,91.44189 -55.29396,91.44189 -36.54192,0 -66.90284,-40.48442 -66.165,-90.40865 0.48547,-32.84839 13.24993,-66.20505 23.94232,-76.80862 6.48813,-6.43423 25.85605,-19.70298 42.22268,-14.63328 44.19624,13.69015 36.32783,46.78179 55.29396,90.40866 z"
       id="path4157"
       sodipodi:nodetypes="cssssc" />
    <path
       sodipodi:nodetypes="cssssc"
       id="path4184"
       d="m 606.28809,642.61633 c 24.94125,57.51158 20.59314,115.81622 -28.28603,136.26224 -48.87917,20.44604 -109.71294,-9.19685 -133.6637,-67.1131 -15.75876,-38.10686 -15.3468,-83.66952 -6.34105,-101.86549 5.46468,-11.04129 24.74369,-37.16121 49.16838,-40.47936 65.95613,-8.9603 71.96083,33.55766 119.1224,73.19571 z"
       style="fill:url(#radialGradient4192);fill-opacity:1;stroke:#000000;stroke-width:6.46078682;stroke-miterlimit:4;stroke-opacity:1;filter:url(#filter4380)" />
    <path
       transform="matrix(1.2300635,-0.51453235,0.6257458,1.442896,-571.44802,26.192054)"
       style="fill:#000000;fill-opacity:1;stroke:none;filter:url(#filter4204)"
       d="m 496.07857,653.60577 c 0,0 20.56995,-8.27676 40.59777,-9.09137 31.67779,-1.28848 34.74077,-0.96395 60.12626,2.70348 40.13525,5.79832 22.83228,6.38789 22.83228,6.38789 1.59014,0 2.87029,1.28015 2.87029,2.87029 l 0,19.5106 c 0,1.59014 -1.28015,2.87029 -2.87029,2.87029 l -57.34504,-3.53553 -66.21127,3.53553 c -1.59014,0 -2.87029,-1.28015 -2.87029,-2.87029 l 0,-19.5106 c 0,-1.59014 1.28015,-2.87029 2.87029,-2.87029 z"
       id="rect4194"
       sodipodi:nodetypes="cssccccccccc" />
    <rect
       style="opacity:0.69037655;fill:none;stroke:#ffdd55;stroke-width:8.61924934;stroke-miterlimit:4;stroke-opacity:1;stroke-dasharray:none"
       id="rect4211"
       width="39.00412"
       height="26.108526"
       x="11.882702"
       y="849.26233"
       ry="0.87793911"
       transform="matrix(0.86846045,-0.49575846,0.54070412,0.84121285,0,0)" />
    <path
       style="fill:#ffffff;fill-opacity:1;stroke:#000000;stroke-width:6.58375359;stroke-linecap:butt;stroke-linejoin:miter;stroke-miterlimit:4;stroke-opacity:1;stroke-dasharray:none;stroke-dashoffset:0;filter:url(#filter4770)"
       d="m 452.25683,454.38783 c 0,85.46352 -56.8366,127.90003 -147.99257,131.26678 -109.40089,4.04061 -162.43214,-30.78983 -168.19553,-139.348 -5.50427,-103.67733 78.0184,-142.0262 169.20568,-144.39878 116.47192,-3.03046 146.98242,71.05708 146.98242,152.48 z"
       id="path4225"
       sodipodi:nodetypes="csssc"
       inkscape:transform-center-x="9.7968703"
       inkscape:transform-center-y="-2.2914504"
       transform="matrix(1.0969816,-0.42280808,0.42280808,1.0969816,-131.77683,72.272353)" />
    <path
       style="fill:#edcaa4;fill-opacity:1;stroke:#000000;stroke-width:6.56988621;stroke-linecap:butt;stroke-linejoin:miter;stroke-miterlimit:4;stroke-opacity:1;stroke-dashoffset:0;filter:url(#filter4239)"
       d="m 414.2879,455.15899 c 2.02028,79.39412 -50.00108,102.35183 -126.54415,104.82593 -93.75572,3.03045 -128.56451,-39.57394 -128.56451,-105.83608 0,-66.26214 40.86971,-124.01882 132.60512,-121.99852 76.56456,1.6862 128.56449,34.52318 122.50354,123.00867 z"
       id="path4232"
       sodipodi:nodetypes="csssc"
       transform="matrix(1.0969816,-0.42280808,0.42280808,1.0969816,-131.77683,72.272353)" />
    <path
       sodipodi:nodetypes="csssc"
       id="path4251"
       d="m 411.00317,458.444 c 2.02028,79.39412 -50.00108,102.35183 -126.54415,104.82593 -93.75572,3.03045 -128.56451,-39.57394 -128.56451,-105.83608 0,-66.26214 40.86971,-124.01882 132.60512,-121.99852 76.56456,1.6862 128.56449,34.52318 122.50354,123.00867 z"
       style="fill:url(#radialGradient4259);fill-opacity:1;stroke:none;filter:url(#filter4239)"
       transform="matrix(1.0969816,-0.42280808,0.42280808,1.0969816,-131.77683,72.272353)" />
    <path
       style="fill:#000000;fill-opacity:1;stroke:none;filter:url(#filter4324)"
       id="path4310"
       d="m 178.59613,349.8148 c 3.36151,2.84471 6.70565,5.70832 10.13742,8.46828 2.68939,2.25858 5.53876,4.30769 8.39794,6.34203 1.61301,1.22966 3.26855,2.4159 4.84426,3.69361 1.69776,1.48617 3.15707,3.21343 4.9482,4.59111 1.64917,1.27179 3.31796,2.50381 5.04664,3.66593 1.54656,1.18254 3.04879,2.42064 4.55493,3.6537 1.89615,1.34727 3.69553,2.81614 5.51949,4.25735 1.76904,1.42371 3.75996,2.52279 5.67691,3.72666 1.45453,1.07339 3.01262,1.98295 4.55647,2.91986 1.01591,0.68518 2.05785,1.31971 3.11604,1.93664 0,0 -1.0289,17.98977 -1.0289,17.98977 l 0,0 c -0.98253,-0.70314 -2.13127,-1.12807 -3.02937,-1.96184 -1.58753,-0.8755 -3.22107,-1.75867 -4.61119,-2.92143 -1.97925,-1.20922 -3.96783,-2.42142 -5.84692,-3.78498 -1.88072,-1.38291 -3.5849,-3.00267 -5.59111,-4.21839 -1.47835,-1.22614 -2.98829,-2.39527 -4.44595,-3.63999 -1.62824,-1.28531 -3.50639,-2.25035 -5.01965,-3.6982 -1.93675,-1.26499 -3.47897,-2.9411 -5.12558,-4.55185 -1.47491,-1.35828 -3.17313,-2.43407 -4.67448,-3.76314 -2.90366,-2.07629 -5.74235,-4.25608 -8.49452,-6.53118 -3.35575,-2.73434 -6.66583,-5.52167 -10.04525,-8.22655 0,0 1.11462,-17.94739 1.11462,-17.94739 z"
       transform="matrix(1.0969816,-0.42280808,0.42280808,1.0969816,-131.77683,72.272353)" />
    <path
       style="fill:none;stroke:#000000;stroke-width:15;stroke-linecap:butt;stroke-linejoin:miter;stroke-miterlimit:4;stroke-opacity:1;stroke-dasharray:none;filter:url(#filter4346)"
       d="m 216.58895,391.53967 c -5.50061,42.46943 -1.29888,90.15988 13.13198,122.22846"
       id="path4336"
       transform="matrix(1.0969816,-0.42280808,0.42280808,1.0969816,-131.77683,72.272353)" />
    <path
       transform="matrix(1.1556178,-0.44540815,0.44540815,1.1556178,-243.06022,-333.98373)"
       d="m 435.71428,597.85712 c 0,28.7977 -23.98474,52.14285 -53.57143,52.14285 -29.58668,0 -53.57143,-23.34515 -53.57143,-52.14285 0,-28.79771 23.98475,-52.14286 53.57143,-52.14286 29.58669,0 53.57143,23.34515 53.57143,52.14286 z"
       sodipodi:ry="52.142857"
       sodipodi:rx="53.57143"
       sodipodi:cy="597.85712"
       sodipodi:cx="382.14285"
       id="path3830-9"
       style="fill:#ffff00;fill-opacity:1;stroke:#000000;stroke-width:4.55075169000000024;stroke-miterlimit:4;stroke-opacity:1;stroke-dasharray:none;filter:url(#filter3936-0)"
       sodipodi:type="arc" />
    <path
       transform="matrix(0.36305201,0.25824317,-0.30982008,0.46644566,47.664563,-282.60556)"
       style="fill:#808000;fill-opacity:1;stroke:none;filter:url(#filter3977-0)"
       d="m 1492.8571,254.28572 c 0,60.75132 -61.7207,110 -137.8571,110 -76.1364,0 -137.8571,-49.24868 -137.8571,-110 0,-19.30903 6.3698,-38.27788 18.4693,-55 27.4074,36.60094 35.0359,57.07128 118.5222,79.49311 74.5263,16.5735 94.5018,-12.59621 138.7227,-24.49311 z"
       id="path3930-0-3"
       sodipodi:nodetypes="cssccc" />
    <path
       sodipodi:type="arc"
       style="fill:#ffffff;fill-opacity:1;stroke:none;filter:url(#filter3867-9)"
       id="path3845-7"
       sodipodi:cx="382.14285"
       sodipodi:cy="597.85712"
       sodipodi:rx="53.57143"
       sodipodi:ry="52.142857"
       d="m 435.71428,597.85712 a 53.57143,52.142857 0 1 1 -107.14286,0 53.57143,52.142857 0 1 1 107.14286,0 z"
       transform="matrix(0.53916566,0,0,0.53916566,281.36059,-155.18928)" />
    <path
       style="fill:#ffffff;fill-opacity:1;stroke:#000000;stroke-width:5;stroke-miterlimit:4;stroke-opacity:1;stroke-dasharray:none;filter:url(#filter4552)"
       d="m 422.4075,313.48509 c 0,8.64732 -4.5111,13.63705 -12.8795,13.63705 -8.3683,0 -22.7751,-4.0444 -15.1523,-15.65736 3.8363,-5.8444 6.2415,-13.45938 14.1421,-14.39468 8.3104,-0.98381 13.8897,7.76766 13.8897,16.41499 z"
       id="path4513"
       sodipodi:nodetypes="csssc"
       transform="matrix(1.0969816,-0.42280808,0.42280808,1.0969816,-131.77683,72.272353)" />
    <path
       transform="matrix(1.2211191,-0.20666191,-0.20666191,-1.2211191,390.97935,1430.0102)"
       d="m 435.71428,597.85712 c 0,28.7977 -23.98474,52.14285 -53.57143,52.14285 -29.58668,0 -53.57143,-23.34515 -53.57143,-52.14285 0,-28.79771 23.98475,-52.14286 53.57143,-52.14286 29.58669,0 53.57143,23.34515 53.57143,52.14286 z"
       sodipodi:ry="52.142857"
       sodipodi:rx="53.57143"
       sodipodi:cy="597.85712"
       sodipodi:cx="382.14285"
       id="path3830-2"
       style="fill:#ffff00;fill-opacity:1;stroke:#000000;stroke-width:4.55075169000000024;stroke-miterlimit:4;stroke-opacity:1;stroke-dasharray:none;filter:url(#filter4392)"
       sodipodi:type="arc" />
    <path
       style="fill:#808000;fill-opacity:1;stroke:none;filter:url(#filter4388)"
       d="m 774.70376,663.18843 c 24.33367,-20.93549 26.51696,-57.02574 4.8765,-80.60984 -21.64046,-23.5841 -58.90984,-25.73121 -83.24351,-4.79571 -7.73414,6.65408 -13.52152,15.16404 -16.78041,24.6746 22.45042,-4.12329 32.81799,-8.81455 65.52849,9.31948 27.82126,17.37397 21.81515,33.61376 29.61893,51.41147 z"
       id="path3930-0-7"
       sodipodi:nodetypes="cssccc" />
    <path
       style="fill:none;stroke:#000000;stroke-width:7.10889149;stroke-linecap:butt;stroke-linejoin:miter;stroke-miterlimit:4;stroke-opacity:1;stroke-dasharray:none;filter:url(#filter4496)"
       d="m 260.84786,662.54674 c 78.68307,27.65993 138.58645,18.65712 168.88709,11.60153"
       id="path4616"
       sodipodi:nodetypes="cc" />
    <path
       style="fill:none;stroke:#000000;stroke-width:5;stroke-linecap:butt;stroke-linejoin:miter;stroke-miterlimit:4;stroke-opacity:1;stroke-dasharray:none;filter:url(#filter4500)"
       d="m 170.10841,634.95018 c 25.83712,-21.12562 68.34187,-34.09387 97.98238,-31.27096"
       id="path4644"
       sodipodi:nodetypes="cc"
       transform="matrix(1.2091703,-0.55535421,-0.48138902,-1.3949587,397.29606,1615.4863)" />
    <path
       style="fill:none;stroke:#000000;stroke-width:5;stroke-linecap:butt;stroke-linejoin:miter;stroke-miterlimit:4;stroke-opacity:1;stroke-dasharray:none;filter:url(#filter4492)"
       d="m 353.68316,569.62941 c 34.92954,9.02062 91.49945,-0.46941 108.07896,-13.36485"
       id="path4743"
       sodipodi:nodetypes="cc"
       transform="matrix(1.1591593,-0.19617586,-0.19617586,-1.1591593,255.28065,1314.6344)" />
    <path
       style="fill:none;stroke:#000000;stroke-width:4.6661334;stroke-linecap:butt;stroke-linejoin:miter;stroke-miterlimit:4;stroke-opacity:1;stroke-dasharray:none;filter:url(#filter4484)"
       d="m 556.97818,570.94144 c 49.22218,18.77198 132.9241,5.52314 160.21519,-20.39245"
       id="path4745"
       sodipodi:nodetypes="cc"
       transform="matrix(1.2420983,-0.21021244,-0.21021244,-1.2420983,-68.035027,1395.1785)" />
    <path
       style="fill:none;stroke:#000000;stroke-width:3;stroke-linecap:butt;stroke-linejoin:miter;stroke-miterlimit:4;stroke-opacity:1;stroke-dasharray:none;filter:url(#filter3827)"
       d="m 181.91517,725.39115 c 40.88597,20.19472 77.24668,49.9011 97.14288,85.71429"
       id="path3049"
       transform="matrix(0.99649727,-0.0836253,0.0836253,0.99649727,44.671898,163.95488)" />
    <path
       style="fill:#000000;fill-opacity:1;stroke:none;filter:url(#filter4324-3)"
       id="path4310-7"
       d="m 178.59613,349.8148 c 3.36151,2.84471 6.70565,5.70832 10.13742,8.46828 2.68939,2.25858 5.53876,4.30769 8.39794,6.34203 1.61301,1.22966 3.26855,2.4159 4.84426,3.69361 1.69776,1.48617 3.15707,3.21343 4.9482,4.59111 1.64917,1.27179 3.31796,2.50381 5.04664,3.66593 1.54656,1.18254 3.04879,2.42064 4.55493,3.6537 1.89615,1.34727 3.69553,2.81614 5.51949,4.25735 1.76904,1.42371 3.75996,2.52279 5.67691,3.72666 1.45453,1.07339 3.01262,1.98295 4.55647,2.91986 1.01591,0.68518 2.05785,1.31971 3.11604,1.93664 0,0 -1.0289,17.98977 -1.0289,17.98977 l 0,0 c -0.98253,-0.70314 -2.13127,-1.12807 -3.02937,-1.96184 -1.58753,-0.8755 -3.22107,-1.75867 -4.61119,-2.92143 -1.97925,-1.20922 -3.96783,-2.42142 -5.84692,-3.78498 -1.88072,-1.38291 -3.5849,-3.00267 -5.59111,-4.21839 -1.47835,-1.22614 -2.98829,-2.39527 -4.44595,-3.63999 -1.62824,-1.28531 -3.50639,-2.25035 -5.01965,-3.6982 -1.93675,-1.26499 -3.47897,-2.9411 -5.12558,-4.55185 -1.47491,-1.35828 -3.17313,-2.43407 -4.67448,-3.76314 -2.90366,-2.07629 -5.74235,-4.25608 -8.49452,-6.53118 -3.35575,-2.73434 -6.66583,-5.52167 -10.04525,-8.22655 0,0 1.11462,-17.94739 1.11462,-17.94739 z"
       transform="matrix(-1.0969816,0.42280808,0.42280808,1.0969816,469.77324,-166.538)" />
    <path
       style="fill:none;stroke:#000000;stroke-width:15;stroke-linecap:butt;stroke-linejoin:miter;stroke-miterlimit:4;stroke-opacity:1;stroke-dasharray:none;filter:url(#filter4346-7)"
       d="m 216.58895,391.53967 c -11.57632,42.46943 -19.526,91.37502 -5.09514,123.4436"
       id="path4336-3"
       transform="matrix(-1.0969816,0.42280808,0.42280808,1.0969816,469.77324,-166.538)"
       sodipodi:nodetypes="cc" />
    <path
       style="fill:#ffffff;fill-opacity:1;stroke:none;filter:url(#filter4504)"
       d="m 348.23445,676.98496 c -23.11148,-1.48193 -52.66722,-7.15768 -74.93599,-14.39036 l -3.21517,-1.04425 3.97278,-2.29478 c 7.9474,-4.59061 15.52276,-11.10311 20.45504,-17.58508 l 1.96012,-2.57597 5.42602,1.64167 c 7.69401,2.32786 16.3449,4.19438 25.124,5.42077 10.41801,1.45535 35.30545,1.55827 45.96194,0.19009 18.47901,-2.37251 36.26407,-7.11871 49.24363,-13.14136 2.08272,-0.96641 3.84578,-1.69808 3.91792,-1.62595 0.0721,0.0721 -0.0988,3.94546 -0.37995,8.60738 -0.36642,6.07691 -0.34397,11.13939 0.0793,17.88454 0.32472,5.17458 0.60993,10.19202 0.63379,11.14987 l 0.0434,1.74154 -4.29315,0.89475 c -8.04907,1.67753 -23.46867,3.91528 -32.32488,4.6911 -7.9749,0.69861 -33.42103,0.96489 -41.6688,0.43604 l -10e-6,0 z"
       id="path4326" />
    <path
       style="fill:#ffffff;fill-opacity:1;stroke:none;filter:url(#filter4488)"
       d="m 552.94162,580.8397 c -0.70633,-1.14286 -8.67203,-6.30421 -13.29682,-8.61563 -6.05507,-3.02627 -9.93594,-4.3727 -16.76342,-5.81591 l -5.26125,-1.11214 5.26125,-2.18923 c 19.38665,-8.06688 43.25579,-13.66342 70.41608,-16.51028 10.90423,-1.14295 41.85036,-1.2991 52.2754,-0.26377 15.41086,1.53048 29.22324,4.28799 40.87656,8.16063 5.5179,1.83371 13.69902,5.43115 14.82153,6.51738 0.21573,0.20877 -0.74816,1.00025 -2.14198,1.75887 -3.48742,1.89809 -9.7729,6.61998 -13.69117,10.28533 -3.08896,2.88958 -3.33491,3.01965 -4.52774,2.39466 -4.05988,-2.12718 -14.87114,-4.78654 -24.74188,-6.08602 -8.45174,-1.11267 -32.83621,-1.55037 -42.75059,-0.76737 -21.06373,1.66352 -38.55134,5.02762 -52.69755,10.13746 -7.62002,2.75247 -7.41346,2.69654 -7.77842,2.10602 z"
       id="path4328" />
    <path
       style="fill:none;stroke:#000000;stroke-width:5;stroke-linecap:butt;stroke-linejoin:miter;stroke-miterlimit:4;stroke-opacity:1;stroke-dasharray:none;filter:url(#filter4448)"
       d="m 500.8572,781.57672 c -26.6103,19.63441 -72.3113,67.17728 -89.9035,95.96449"
       id="path4330" />
    <path
       style="fill:none;stroke:#000000;stroke-width:5;stroke-linecap:butt;stroke-linejoin:miter;stroke-miterlimit:4;stroke-opacity:1;stroke-dasharray:none;filter:url(#filter4452)"
       d="m 545.28807,783.61296 c -47.81771,37.73679 -77.83245,73.57717 -99.89204,126.15599"
       id="path4332" />
    <path
       style="fill:none;stroke:#000000;stroke-width:5;stroke-linecap:butt;stroke-linejoin:miter;stroke-miterlimit:4;stroke-opacity:1;stroke-dasharray:none;filter:url(#filter4476)"
       d="m 571.02697,771.47519 c 14.31159,14.11765 27.32832,27.57393 40.14272,38.33804 30.46777,25.59293 55.50604,26.68107 102.65645,0.25441"
       id="path4334"
       sodipodi:nodetypes="csc" />
    <path
       style="fill:none;stroke:#000000;stroke-width:5;stroke-linecap:butt;stroke-linejoin:miter;stroke-miterlimit:4;stroke-opacity:1;stroke-dasharray:none;filter:url(#filter4472)"
       d="m 600.32162,750.86371 c 53.62673,56.81033 57.06536,54.00063 81.28756,26.29859"
       id="path4339"
       sodipodi:nodetypes="cc" />
    <path
       style="fill:#ffffff;fill-opacity:1;stroke:none;filter:url(#filter4456)"
       d="m 441.70892,903.84823 c -4.91301,-2.6063 -11.41907,-8.11686 -21.19156,-17.94905 l -8.4066,-8.45795 4.30942,-6.3153 c 16.86226,-24.71101 52.03081,-62.14047 78.84972,-83.9188 4.25773,-3.4575 6.7257,-5.00655 7.5,-4.70748 10.30934,3.98192 18.34212,6.11702 29.56028,7.85709 l 2.69194,0.41755 -2.3348,1.89718 c -17.97095,14.60266 -39.63201,37.08217 -53.57249,55.59669 -10.5152,13.96537 -21.82717,33.09477 -29.42375,49.75781 -1.92534,4.22321 -3.72164,7.67857 -3.99177,7.67857 -0.27013,0 -2.0658,-0.83533 -3.99039,-1.85631 z"
       id="path4341" />
    <path
       style="fill:#ffffff;fill-opacity:1;stroke:none;filter:url(#filter4480)"
       d="m 646.42397,827.55015 c -16.17621,-3.39891 -30.50202,-13.14252 -55,-37.40788 -5.85458,-5.79899 -8.59223,-8.97618 -7.95164,-9.22831 3.286,-1.29335 14.85093,-9.91117 19.44181,-14.48742 l 5.41875,-5.40148 12.38364,12.01253 c 13.55174,13.14562 20.65969,18.88581 26.95555,21.76856 9.70167,4.44222 15.77579,2.61494 26.07776,-7.84496 3.75503,-3.81261 6.37371,-5.97481 6.55288,-5.41063 0.16415,0.51683 0.65163,2.09174 1.08329,3.49979 1.19701,3.90462 5.25081,5.65419 13.10089,5.65419 7.09761,0 7.34237,0.15392 10.6375,6.68941 1.21515,2.41011 3.43218,6.18475 4.92673,8.3881 l 2.71737,4.00607 -12.63655,6.09932 c -12.96515,6.25793 -17.94555,8.19744 -27.27941,10.6234 -7.02769,1.82656 -20.21395,2.34511 -26.42857,1.03931 z"
       id="path4343" />
    <path
       style="fill:none;stroke:#000000;stroke-width:5;stroke-linecap:butt;stroke-linejoin:miter;stroke-miterlimit:4;stroke-opacity:1;stroke-dasharray:none"
       d="m 573.84076,777.28357 c -9.72841,-20.60991 19.5232,-38.09005 30.05204,-22.98097"
       id="path4350"
       sodipodi:nodetypes="cc" />
    <path
       style="fill:#ffffff;fill-opacity:1;stroke:none"
       d="m 611.02441,764.59263 c 2.6099,3.50199 -1.52005,10.10074 -9.2245,14.73873 -7.70445,4.63798 -15.4069,4.95343 -18.67578,2.0569 -18.77234,-16.63397 -8.71981,-20.22589 -2.13972,-26.35548 15.2806,-14.23443 27.43011,6.05786 30.04,9.55985 z"
       id="path4347"
       sodipodi:nodetypes="csssc" />
    <path
       sodipodi:type="arc"
       style="fill:#ffffff;fill-opacity:1;stroke:none;filter:url(#filter4072)"
       id="path4054"
       sodipodi:cx="383.92856"
       sodipodi:cy="892.5"
       sodipodi:rx="22.5"
       sodipodi:ry="31.071428"
       d="m 406.42856,892.5 c 0,17.16028 -10.07359,31.07143 -22.5,31.07143 -12.42641,0 -22.5,-13.91115 -22.5,-31.07143 0,-17.16028 10.07359,-31.07143 22.5,-31.07143 12.42641,0 22.5,13.91115 22.5,31.07143 z"
       transform="matrix(-1.1974339,-0.04275425,-0.35204371,-0.69778598,1095.3178,1494.7178)" />
    <path
       sodipodi:type="arc"
       style="fill:#ffffff;fill-opacity:1;stroke:none;filter:url(#filter4072-7)"
       id="path4054-2"
       sodipodi:cx="383.92856"
       sodipodi:cy="892.5"
       sodipodi:rx="22.5"
       sodipodi:ry="31.071428"
       d="m 406.42856,892.5 c 0,17.16028 -10.07359,31.07143 -22.5,31.07143 -12.42641,0 -22.5,-13.91115 -22.5,-31.07143 0,-17.16028 10.07359,-31.07143 22.5,-31.07143 12.42641,0 22.5,13.91115 22.5,31.07143 z"
       transform="matrix(-1.0030596,-0.83283006,-0.79133561,0.31141203,1879.9867,877.37126)" />
  </g>
</svg>
