<?xml version="1.0" encoding="UTF-8" standalone="no"?>
<!-- Created with Inkscape (http://www.inkscape.org/) -->

<svg
   xmlns:dc="http://purl.org/dc/elements/1.1/"
   xmlns:cc="http://creativecommons.org/ns#"
   xmlns:rdf="http://www.w3.org/1999/02/22-rdf-syntax-ns#"
   xmlns:svg="http://www.w3.org/2000/svg"
   xmlns="http://www.w3.org/2000/svg"
   xmlns:xlink="http://www.w3.org/1999/xlink"
   xmlns:sodipodi="http://sodipodi.sourceforge.net/DTD/sodipodi-0.dtd"
   xmlns:inkscape="http://www.inkscape.org/namespaces/inkscape"
   width="1000"
   height="1000"
   id="svg2"
   version="1.1"
   inkscape:version="0.47 r22583"
   sodipodi:docname="player_standing_under_process.svg">
  <defs
     id="defs4">
    <linearGradient
       inkscape:collect="always"
       id="linearGradient4253">
      <stop
         style="stop-color:#ffffff;stop-opacity:1"
         offset="0"
         id="stop4255" />
      <stop
         style="stop-color:#edcaa4;stop-opacity:0;"
         offset="1"
         id="stop4257" />
    </linearGradient>
    <linearGradient
       inkscape:collect="always"
       id="linearGradient4186">
      <stop
         style="stop-color:#f9f9f9;stop-opacity:0.84518828"
         offset="0"
         id="stop4188" />
      <stop
         style="stop-color:#807aba;stop-opacity:0;"
         offset="1"
         id="stop4190" />
    </linearGradient>
    <linearGradient
       inkscape:collect="always"
       id="linearGradient3873">
      <stop
         style="stop-color:#a94466;stop-opacity:1;"
         offset="0"
         id="stop3875" />
      <stop
         style="stop-color:#e4749f;stop-opacity:1"
         offset="1"
         id="stop3877" />
    </linearGradient>
    <inkscape:perspective
       sodipodi:type="inkscape:persp3d"
       inkscape:vp_x="0 : 526.18109 : 1"
       inkscape:vp_y="0 : 1000 : 0"
       inkscape:vp_z="744.09448 : 526.18109 : 1"
       inkscape:persp3d-origin="372.04724 : 350.78739 : 1"
       id="perspective10" />
    <inkscape:perspective
       id="perspective3040"
       inkscape:persp3d-origin="0.5 : 0.33333333 : 1"
       inkscape:vp_z="1 : 0.5 : 1"
       inkscape:vp_y="0 : 1000 : 0"
       inkscape:vp_x="0 : 0.5 : 1"
       sodipodi:type="inkscape:persp3d" />
    <filter
       inkscape:collect="always"
       id="filter3867"
       x="-0.39953909"
       width="1.7990782"
       y="-0.41048538"
       height="1.8209708">
      <feGaussianBlur
         inkscape:collect="always"
         stdDeviation="17.836567"
         id="feGaussianBlur3869" />
    </filter>
    <radialGradient
       inkscape:collect="always"
       xlink:href="#linearGradient3873"
       id="radialGradient3879"
       cx="407.09671"
       cy="617.58893"
       fx="407.09671"
       fy="617.58893"
       r="306.12509"
       gradientTransform="matrix(0.30633431,-0.54130701,0.45300649,0.25636363,5.5205225,727.25636)"
       gradientUnits="userSpaceOnUse" />
    <filter
       inkscape:collect="always"
       id="filter3936">
      <feGaussianBlur
         inkscape:collect="always"
         stdDeviation="1.0571429"
         id="feGaussianBlur3938" />
    </filter>
    <inkscape:perspective
       id="perspective3952"
       inkscape:persp3d-origin="0.5 : 0.33333333 : 1"
       inkscape:vp_z="1 : 0.5 : 1"
       inkscape:vp_y="0 : 1000 : 0"
       inkscape:vp_x="0 : 0.5 : 1"
       sodipodi:type="inkscape:persp3d" />
    <filter
       inkscape:collect="always"
       id="filter3977">
      <feGaussianBlur
         inkscape:collect="always"
         stdDeviation="7.6776642"
         id="feGaussianBlur3979" />
    </filter>
    <filter
       inkscape:collect="always"
       id="filter4011">
      <feGaussianBlur
         inkscape:collect="always"
         stdDeviation="1.8176083"
         id="feGaussianBlur4013" />
    </filter>
    <inkscape:perspective
       id="perspective4023"
       inkscape:persp3d-origin="0.5 : 0.33333333 : 1"
       inkscape:vp_z="1 : 0.5 : 1"
       inkscape:vp_y="0 : 1000 : 0"
       inkscape:vp_x="0 : 0.5 : 1"
       sodipodi:type="inkscape:persp3d" />
    <filter
       color-interpolation-filters="sRGB"
       inkscape:collect="always"
       id="filter4011-6">
      <feGaussianBlur
         inkscape:collect="always"
         stdDeviation="1.8176083"
         id="feGaussianBlur4013-1" />
    </filter>
    <filter
       inkscape:collect="always"
       id="filter4050">
      <feGaussianBlur
         inkscape:collect="always"
         stdDeviation="1.6424635"
         id="feGaussianBlur4052" />
    </filter>
    <filter
       inkscape:collect="always"
       id="filter4072"
       x="-0.19686391"
       width="1.3937278"
       y="-0.17839073"
       height="1.3567815">
      <feGaussianBlur
         inkscape:collect="always"
         stdDeviation="4.60236"
         id="feGaussianBlur4074" />
    </filter>
    <filter
       inkscape:collect="always"
       id="filter4078">
      <feGaussianBlur
         inkscape:collect="always"
         stdDeviation="2.369664"
         id="feGaussianBlur4080" />
    </filter>
    <filter
       inkscape:collect="always"
       id="filter4088">
      <feGaussianBlur
         inkscape:collect="always"
         stdDeviation="1.78797"
         id="feGaussianBlur4090" />
    </filter>
    <inkscape:perspective
       id="perspective4101"
       inkscape:persp3d-origin="0.5 : 0.33333333 : 1"
       inkscape:vp_z="1 : 0.5 : 1"
       inkscape:vp_y="0 : 1000 : 0"
       inkscape:vp_x="0 : 0.5 : 1"
       sodipodi:type="inkscape:persp3d" />
    <filter
       color-interpolation-filters="sRGB"
       inkscape:collect="always"
       id="filter4072-7"
       x="-0.1968639"
       width="1.3937278"
       y="-0.17839073"
       height="1.3567815">
      <feGaussianBlur
         inkscape:collect="always"
         stdDeviation="4.60236"
         id="feGaussianBlur4074-5" />
    </filter>
    <inkscape:perspective
       id="perspective4129"
       inkscape:persp3d-origin="0.5 : 0.33333333 : 1"
       inkscape:vp_z="1 : 0.5 : 1"
       inkscape:vp_y="0 : 1000 : 0"
       inkscape:vp_x="0 : 0.5 : 1"
       sodipodi:type="inkscape:persp3d" />
    <filter
       inkscape:collect="always"
       id="filter4153">
      <feGaussianBlur
         inkscape:collect="always"
         stdDeviation="3.0025053"
         id="feGaussianBlur4155" />
    </filter>
    <filter
       inkscape:collect="always"
       id="filter4163">
      <feGaussianBlur
         inkscape:collect="always"
         stdDeviation="1.5531699"
         id="feGaussianBlur4165" />
    </filter>
    <radialGradient
       inkscape:collect="always"
       xlink:href="#linearGradient4186"
       id="radialGradient4192"
       cx="592.57983"
       cy="573.17139"
       fx="592.57983"
       fy="573.17139"
       r="67.286976"
       gradientTransform="matrix(1.5213766,1.4531001,-0.81591904,1.1112539,166.94757,-909.72506)"
       gradientUnits="userSpaceOnUse" />
    <filter
       inkscape:collect="always"
       id="filter4204"
       x="-0.038367527"
       width="1.0767351"
       y="-0.19645829"
       height="1.3929166">
      <feGaussianBlur
         inkscape:collect="always"
         stdDeviation="2.0670008"
         id="feGaussianBlur4206" />
    </filter>
    <filter
       inkscape:collect="always"
       id="filter4228">
      <feGaussianBlur
         inkscape:collect="always"
         stdDeviation="3.0029635"
         id="feGaussianBlur4230" />
    </filter>
    <filter
       inkscape:collect="always"
       id="filter4239">
      <feGaussianBlur
         inkscape:collect="always"
         stdDeviation="2.4181293"
         id="feGaussianBlur4241" />
    </filter>
    <radialGradient
       inkscape:collect="always"
       xlink:href="#linearGradient4253"
       id="radialGradient4259"
       cx="610.49249"
       cy="479.80173"
       fx="610.49249"
       fy="479.80173"
       r="136.88248"
       gradientTransform="matrix(1.0032273,-0.89936507,0.77867728,0.86859498,-399.4899,561.70499)"
       gradientUnits="userSpaceOnUse" />
    <filter
       inkscape:collect="always"
       id="filter4324"
       x="-0.11684767"
       width="1.2336953"
       y="-0.11049059"
       height="1.2209812">
      <feGaussianBlur
         inkscape:collect="always"
         stdDeviation="2.819579"
         id="feGaussianBlur4326" />
    </filter>
    <filter
       inkscape:collect="always"
       id="filter4346"
       x="-0.2671988"
       width="1.5343976"
       y="-0.033794286"
       height="1.0675886">
      <feGaussianBlur
         inkscape:collect="always"
         stdDeviation="1.7210931"
         id="feGaussianBlur4348" />
    </filter>
    <filter
       inkscape:collect="always"
       id="filter4362">
      <feGaussianBlur
         inkscape:collect="always"
         stdDeviation="1.5664284"
         id="feGaussianBlur4364" />
    </filter>
    <filter
       inkscape:collect="always"
       id="filter4394">
      <feGaussianBlur
         inkscape:collect="always"
         stdDeviation="0.78674713"
         id="feGaussianBlur4396" />
    </filter>
    <filter
       inkscape:collect="always"
       id="filter4410">
      <feGaussianBlur
         inkscape:collect="always"
         stdDeviation="0.40854613"
         id="feGaussianBlur4412" />
    </filter>
    <inkscape:perspective
       id="perspective4422"
       inkscape:persp3d-origin="0.5 : 0.33333333 : 1"
       inkscape:vp_z="1 : 0.5 : 1"
       inkscape:vp_y="0 : 1000 : 0"
       inkscape:vp_x="0 : 0.5 : 1"
       sodipodi:type="inkscape:persp3d" />
    <filter
       color-interpolation-filters="sRGB"
       inkscape:collect="always"
       id="filter3936-0">
      <feGaussianBlur
         inkscape:collect="always"
         stdDeviation="1.0571429"
         id="feGaussianBlur3938-9" />
    </filter>
    <inkscape:perspective
       id="perspective4450"
       inkscape:persp3d-origin="0.5 : 0.33333333 : 1"
       inkscape:vp_z="1 : 0.5 : 1"
       inkscape:vp_y="0 : 1000 : 0"
       inkscape:vp_x="0 : 0.5 : 1"
       sodipodi:type="inkscape:persp3d" />
    <filter
       color-interpolation-filters="sRGB"
       inkscape:collect="always"
       id="filter3977-0">
      <feGaussianBlur
         inkscape:collect="always"
         stdDeviation="7.6776642"
         id="feGaussianBlur3979-9" />
    </filter>
    <inkscape:perspective
       id="perspective4478"
       inkscape:persp3d-origin="0.5 : 0.33333333 : 1"
       inkscape:vp_z="1 : 0.5 : 1"
       inkscape:vp_y="0 : 1000 : 0"
       inkscape:vp_x="0 : 0.5 : 1"
       sodipodi:type="inkscape:persp3d" />
    <filter
       color-interpolation-filters="sRGB"
       inkscape:collect="always"
       id="filter3867-9"
       x="-0.39953908"
       width="1.7990782"
       y="-0.41048539"
       height="1.8209708">
      <feGaussianBlur
         inkscape:collect="always"
         stdDeviation="17.836567"
         id="feGaussianBlur3869-8" />
    </filter>
    <filter
       inkscape:collect="always"
       id="filter4552"
       x="-0.21282973"
       width="1.4256595"
       y="-0.21324474"
       height="1.4264895">
      <feGaussianBlur
         inkscape:collect="always"
         stdDeviation="2.6769257"
         id="feGaussianBlur4554" />
    </filter>
    <inkscape:perspective
       id="perspective4564"
       inkscape:persp3d-origin="0.5 : 0.33333333 : 1"
       inkscape:vp_z="1 : 0.5 : 1"
       inkscape:vp_y="0 : 1000 : 0"
       inkscape:vp_x="0 : 0.5 : 1"
       sodipodi:type="inkscape:persp3d" />
    <filter
       color-interpolation-filters="sRGB"
       inkscape:collect="always"
       id="filter3936-2">
      <feGaussianBlur
         inkscape:collect="always"
         stdDeviation="1.0571429"
         id="feGaussianBlur3938-3" />
    </filter>
    <inkscape:perspective
       id="perspective4592"
       inkscape:persp3d-origin="0.5 : 0.33333333 : 1"
       inkscape:vp_z="1 : 0.5 : 1"
       inkscape:vp_y="0 : 1000 : 0"
       inkscape:vp_x="0 : 0.5 : 1"
       sodipodi:type="inkscape:persp3d" />
    <filter
       color-interpolation-filters="sRGB"
       inkscape:collect="always"
       id="filter3977-6">
      <feGaussianBlur
         inkscape:collect="always"
         stdDeviation="7.6776642"
         id="feGaussianBlur3979-7" />
    </filter>
  </defs>
  <sodipodi:namedview
     id="base"
     pagecolor="#ffffff"
     bordercolor="#666666"
     borderopacity="1.0"
     inkscape:pageopacity="0.0"
     inkscape:pageshadow="2"
     inkscape:zoom="0.7"
     inkscape:cx="957.52556"
     inkscape:cy="547.54906"
     inkscape:document-units="px"
     inkscape:current-layer="layer1"
     showgrid="false"
     inkscape:window-width="1920"
     inkscape:window-height="1005"
     inkscape:window-x="0"
     inkscape:window-y="24"
     inkscape:window-maximized="1" />
  <metadata
     id="metadata7">
    <rdf:RDF>
      <cc:Work
         rdf:about="">
        <dc:format>image/svg+xml</dc:format>
        <dc:type
           rdf:resource="http://purl.org/dc/dcmitype/StillImage" />
        <dc:title></dc:title>
      </cc:Work>
    </rdf:RDF>
  </metadata>
  <g
     inkscape:label="Layer 1"
     inkscape:groupmode="layer"
     id="layer1"
     transform="translate(0,-52.362183)">
    <image
       y="-12.849932"
       x="1146.7926"
       id="image3042"
       height="971.28571"
       width="612.25018"
       xlink:href="file:///home/wirnshofer/Desktop/bomberman.jpg"
       style="fill:url(#radialGradient3879);fill-opacity:1" />
    <path
       transform="matrix(1.0534523,0,0,1.0534523,-24.7874,33.040566)"
       d="m 435.71428,597.85712 a 53.57143,52.142857 0 1 1 -107.14286,0 53.57143,52.142857 0 1 1 107.14286,0 z"
       sodipodi:ry="52.142857"
       sodipodi:rx="53.57143"
       sodipodi:cy="597.85712"
       sodipodi:cx="382.14285"
       id="path3830"
       style="fill:#e376a0;fill-opacity:1;stroke:#000000;stroke-width:4.55075185;stroke-miterlimit:4;stroke-opacity:1;stroke-dasharray:none;filter:url(#filter3936)"
       sodipodi:type="arc" />
    <path
       transform="matrix(0.20915035,0.31602502,-0.38858998,0.27543459,192.10881,164.0918)"
       style="fill:#9d3558;fill-opacity:1;stroke:none;filter:url(#filter3977)"
       d="m 1492.8571,254.28572 c 0,60.75132 -61.7207,110 -137.8571,110 -76.1364,0 -137.8571,-49.24868 -137.8571,-110 0,-19.30903 6.3698,-38.27788 18.4693,-55 27.4074,36.60094 35.0359,57.07128 118.5222,79.49311 74.5263,16.5735 94.5018,-12.59621 138.7227,-24.49311 z"
       id="path3930-0"
       sodipodi:nodetypes="cssccc" />
    <path
       sodipodi:type="arc"
       style="fill:#ffffff;fill-opacity:1;stroke:none;filter:url(#filter3867)"
       id="path3845"
       sodipodi:cx="382.14285"
       sodipodi:cy="597.85712"
       sodipodi:rx="53.57143"
       sodipodi:ry="52.142857"
       d="m 435.71428,597.85712 a 53.57143,52.142857 0 1 1 -107.14286,0 53.57143,52.142857 0 1 1 107.14286,0 z"
       transform="matrix(0.45861362,0,0,0.45861362,175.17265,375.17252)" />
    <rect
       style="fill:#ffffff;fill-opacity:1;stroke:#000000;stroke-width:4.24715519;stroke-linecap:butt;stroke-linejoin:miter;stroke-miterlimit:4;stroke-opacity:1;stroke-dasharray:none;stroke-dashoffset:0;filter:url(#filter4011)"
       id="rect4005"
       width="45.038559"
       height="239.32426"
       x="727.67096"
       y="452.76825"
       transform="matrix(0.92035213,0.32920207,-0.32920207,0.92035213,11.473325,21.417609)" />
    <rect
       style="fill:#ffffff;fill-opacity:1;stroke:#000000;stroke-width:4.24715519;stroke-linecap:butt;stroke-linejoin:miter;stroke-miterlimit:4;stroke-opacity:1;stroke-dasharray:none;stroke-dashoffset:0;filter:url(#filter4011-6)"
       id="rect4005-5"
       width="45.038559"
       height="239.32426"
       x="727.67096"
       y="452.76825"
       transform="matrix(0.85606871,-0.28124711,0.28124711,0.85606871,-179.37396,525.61713)" />
    <path
       style="fill:#e5729d;fill-opacity:1;stroke:#000000;stroke-width:4.63;stroke-linecap:butt;stroke-linejoin:miter;stroke-miterlimit:4;stroke-opacity:1;stroke-dashoffset:0;filter:url(#filter4050);stroke-dasharray:none"
       d="m 550.8987,950.98283 c 0,29.04452 11.69911,49.93817 -120.5625,48.71515 -65.00037,-0.60106 -96.23536,2.13812 -96.23536,-26.90639 0,-29.04451 35.6677,-57.48922 96.23536,-77.66161 18.01393,-5.99964 56.08688,11.10359 72.12423,4.04282 10.07831,-4.43719 41.4561,13.45137 48.43827,51.81003 z"
       id="path4043"
       sodipodi:nodetypes="cssssc" />
    <path
       sodipodi:nodetypes="cssssc"
       id="path4076"
       d="m 678.75584,956.69711 c 0,29.04452 146.69911,22.08101 12.29464,22.28657 -65.00307,0.0994 -96.23536,12.85243 -96.23536,-16.1921 0,-29.04451 40.6677,-44.63208 101.23536,-64.80447 5.14629,-1.714 3.71575,4.05071 6.09615,3.35308 21.39886,-6.27145 -52.34674,19.57348 -23.39079,55.35692 z"
       style="fill:#a33a59;fill-opacity:1;stroke:none;filter:url(#filter4078)"
       transform="matrix(1,0,0,1.1634853,-256.85714,-147.59211)" />
    <path
       sodipodi:type="arc"
       style="fill:#ffffff;fill-opacity:1;stroke:none;filter:url(#filter4072)"
       id="path4054"
       sodipodi:cx="383.92856"
       sodipodi:cy="892.5"
       sodipodi:rx="22.5"
       sodipodi:ry="31.071428"
       d="m 406.42856,892.5 a 22.5,31.071428 0 1 1 -45,0 22.5,31.071428 0 1 1 45,0 z"
       transform="matrix(-0.83624936,0.99891003,-0.83380596,-0.16386233,1442.4655,711.22143)" />
    <path
       style="fill:#eb71a2;fill-opacity:1;stroke:#000000;stroke-width:5;stroke-miterlimit:4;stroke-opacity:1;filter:url(#filter4088)"
       d="m 1538.4624,951.85203 c 1.5746,11.70569 -8.8992,18.02376 -92.429,24.74873 -94.2303,7.58646 -109.6015,-10.43018 -109.6015,-46.97209 0,-21.19132 15.4992,-40.63793 29.5899,-47.35887 9.244,0.2553 19.3732,9.44739 27.9079,5.68608 25.0582,-11.04336 116.7948,3.42202 144.5327,63.89615 z"
       id="path4082"
       sodipodi:nodetypes="csscsc"
       transform="matrix(1.0182108,0,0,1.0182108,-761.62518,0.24325673)" />
    <path
       style="fill:#a03b5b;fill-opacity:1;stroke:none;filter:url(#filter4153)"
       d="m 1517.6286,950.85994 c 1.5746,11.70569 11.9346,19.01585 -71.5952,25.74082 -94.2303,7.58646 -109.6015,-10.43018 -109.6015,-46.97209 0,-21.19132 13.515,-31.70916 27.6057,-38.4301 -12.0633,37.6659 64.8811,42.93572 153.591,59.66137 z"
       id="path4082-4"
       sodipodi:nodetypes="csscc"
       transform="matrix(1.0182108,0,0,1.0182108,-753.926,-4.285106)" />
    <path
       sodipodi:type="arc"
       style="fill:#ffffff;fill-opacity:1;stroke:none;filter:url(#filter4072-7)"
       id="path4054-2"
       sodipodi:cx="383.92856"
       sodipodi:cy="892.5"
       sodipodi:rx="22.5"
       sodipodi:ry="31.071428"
       d="m 406.42856,892.5 a 22.5,31.071428 0 1 1 -45,0 22.5,31.071428 0 1 1 45,0 z"
       transform="matrix(-1.2216286,-0.06998879,-0.34408584,-0.72017606,1535.9988,1622.9951)" />
    <path
       transform="matrix(1.1150582,0,0,0.97765363,-78.003428,68.562984)"
       style="fill:#554991;fill-opacity:1;stroke:#000000;stroke-width:4.78882217;stroke-miterlimit:4;stroke-opacity:1;filter:url(#filter4163)"
       d="m 632.59615,588.33975 c 0,49.93132 -18.75205,91.44189 -55.29396,91.44189 -36.54192,0 -66.90284,-40.48442 -66.165,-90.40865 0.48547,-32.84839 13.24993,-66.20505 23.94232,-76.80862 6.48813,-6.43423 25.85605,-19.70298 42.22268,-14.63328 44.19624,13.69015 36.32783,46.78179 55.29396,90.40866 z"
       id="path4157"
       sodipodi:nodetypes="cssssc" />
    <path
       sodipodi:nodetypes="cssssc"
       id="path4184"
       d="m 632.59615,588.33975 c 0,49.93132 -18.75205,91.44189 -55.29396,91.44189 -36.54192,0 -66.90284,-40.48442 -66.165,-90.40865 0.48547,-32.84839 13.24993,-66.20505 23.94232,-76.80862 6.48813,-6.43423 25.85605,-19.70298 42.22268,-14.63328 44.19624,13.69015 36.32783,46.78179 55.29396,90.40866 z"
       style="fill:url(#radialGradient4192);fill-opacity:1;stroke:#000000;stroke-width:4.78882217;stroke-miterlimit:4;stroke-opacity:1;filter:url(#filter4163)"
       transform="matrix(1.1150582,0,0,0.97765363,-78.003529,68.562886)" />
    <path
       transform="matrix(1.0253956,0,0,1.2247228,-12.399326,-153.66945)"
       style="fill:#000000;fill-opacity:1;stroke:none;filter:url(#filter4204)"
       d="m 496.07857,653.60577 c 0,0 20.56995,-8.27676 40.59777,-9.09137 31.67779,-1.28848 34.74077,-0.96395 60.12626,2.70348 40.13525,5.79832 22.83228,6.38789 22.83228,6.38789 1.59014,0 2.87029,1.28015 2.87029,2.87029 l 0,19.5106 c 0,1.59014 -1.28015,2.87029 -2.87029,2.87029 l -57.34504,-3.53553 -66.21127,3.53553 c -1.59014,0 -2.87029,-1.28015 -2.87029,-2.87029 l 0,-19.5106 c 0,-1.59014 1.28015,-2.87029 2.87029,-2.87029 z"
       id="rect4194"
       sodipodi:nodetypes="cssccccccccc" />
    <rect
       style="opacity:0.69037654999999998;fill:none;stroke:#ffdd55;stroke-width:6.66878032999999970;stroke-miterlimit:4;stroke-opacity:1;stroke-dasharray:none"
       id="rect4211"
       width="29.956392"
       height="20.349667"
       x="619.32294"
       y="572.09705"
       ry="0.68428868"
       transform="matrix(0.99322666,0.11619298,-0.07422221,0.99724173,0,0)" />
    <path
       style="fill:#ffffff;fill-opacity:1;stroke:#000000;stroke-width:6.58375359;stroke-linecap:butt;stroke-linejoin:miter;stroke-miterlimit:4;stroke-opacity:1;stroke-dasharray:none;stroke-dashoffset:0;filter:url(#filter4228)"
       d="m 692.25683,434.38783 c 0,85.46352 -56.8366,127.90003 -147.99257,131.26678 -109.40089,4.04061 -162.43214,-30.78983 -168.19553,-139.348 -5.50427,-103.67733 78.0184,-142.0262 169.20568,-144.39878 116.47192,-3.03046 146.98242,71.05708 146.98242,152.48 z"
       id="path4225"
       sodipodi:nodetypes="csssc"
       inkscape:transform-center-x="8.0812204"
       inkscape:transform-center-y="-5.0507627" />
    <path
       style="fill:#edcaa4;fill-opacity:1;stroke:#000000;stroke-width:6.56988621;stroke-linecap:butt;stroke-linejoin:miter;stroke-miterlimit:4;stroke-opacity:1;stroke-dashoffset:0;filter:url(#filter4239)"
       d="m 654.2879,435.15899 c 2.02028,79.39412 -50.00108,102.35183 -126.54415,104.82593 -93.75572,3.03045 -128.56451,-39.57394 -128.56451,-105.83608 0,-66.26214 40.86971,-124.01882 132.60512,-121.99852 76.56456,1.6862 128.56449,34.52318 122.50354,123.00867 z"
       id="path4232"
       sodipodi:nodetypes="csssc" />
    <path
       sodipodi:nodetypes="csssc"
       id="path4251"
       d="m 651.00317,438.444 c 2.02028,79.39412 -50.00108,102.35183 -126.54415,104.82593 -93.75572,3.03045 -128.56451,-39.57394 -128.56451,-105.83608 0,-66.26214 40.86971,-124.01882 132.60512,-121.99852 76.56456,1.6862 128.56449,34.52318 122.50354,123.00867 z"
       style="fill:url(#radialGradient4259);fill-opacity:1;stroke:none;filter:url(#filter4239)" />
    <path
       style="opacity:1;fill:#000000;fill-opacity:1;stroke:none;filter:url(#filter4324)"
       id="path4310"
       d="m 418.59613,329.8148 c 3.36151,2.84471 6.70565,5.70832 10.13742,8.46828 2.68939,2.25858 5.53876,4.30769 8.39794,6.34203 1.61301,1.22966 3.26855,2.4159 4.84426,3.69361 1.69776,1.48617 3.15707,3.21343 4.9482,4.59111 1.64917,1.27179 3.31796,2.50381 5.04664,3.66593 1.54656,1.18254 3.04879,2.42064 4.55493,3.6537 1.89615,1.34727 3.69553,2.81614 5.51949,4.25735 1.76904,1.42371 3.75996,2.52279 5.67691,3.72666 1.45453,1.07339 3.01262,1.98295 4.55647,2.91986 1.01591,0.68518 2.05785,1.31971 3.11604,1.93664 0,0 -1.0289,17.98977 -1.0289,17.98977 l 0,0 c -0.98253,-0.70314 -2.13127,-1.12807 -3.02937,-1.96184 -1.58753,-0.8755 -3.22107,-1.75867 -4.61119,-2.92143 -1.97925,-1.20922 -3.96783,-2.42142 -5.84692,-3.78498 -1.88072,-1.38291 -3.5849,-3.00267 -5.59111,-4.21839 -1.47835,-1.22614 -2.98829,-2.39527 -4.44595,-3.63999 -1.62824,-1.28531 -3.50639,-2.25035 -5.01965,-3.6982 -1.93675,-1.26499 -3.47897,-2.9411 -5.12558,-4.55185 -1.47491,-1.35828 -3.17313,-2.43407 -4.67448,-3.76314 -2.90366,-2.07629 -5.74235,-4.25608 -8.49452,-6.53118 -3.35575,-2.73434 -6.66583,-5.52167 -10.04525,-8.22655 0,0 1.11462,-17.94739 1.11462,-17.94739 z" />
    <path
       style="fill:none;stroke:#000000;stroke-width:15;stroke-linecap:butt;stroke-linejoin:miter;stroke-miterlimit:4;stroke-opacity:1;stroke-dasharray:none;filter:url(#filter4346)"
       d="m 456.58895,371.53967 c -5.50061,42.46943 -1.29888,90.15988 13.13198,122.22846"
       id="path4336" />
    <path
       style="fill:#000000;fill-opacity:1;stroke:none;filter:url(#filter4362)"
       id="path4352"
       d="m 548.00319,447.48371 c 2.02472,-3.39146 3.90062,-6.88189 6.06802,-10.18169 1.8832,-2.88199 4.3623,-5.28114 6.5639,-7.90311 2.1207,-1.97455 4.2033,-4.09717 6.6086,-5.73251 1.4252,-1.13454 3.0154,-2.15203 4.7092,-2.83817 1.3955,-0.89319 3.0159,-1.40786 4.4246,-2.28084 1.6077,-0.83143 3.3869,-1.21883 5.0475,-1.93388 1.7941,-0.66171 3.5676,-1.37211 5.3126,-2.15798 1.9026,-0.68937 3.8572,-1.26619 5.8207,-1.76438 2.0481,-0.48003 4.1523,-0.58473 6.2466,-0.64974 1.7112,-0.39006 3.4285,-0.6951 5.1759,-0.86291 2.2309,-0.18852 4.4708,-0.13856 6.7068,-0.13877 2.4144,-0.006 4.8287,-0.0165 7.243,-0.022 0.3523,0.0363 0.7046,0.0725 1.0569,0.10882 0,0 -0.2313,17.99776 -0.2313,17.99776 l 0,0 c -0.2758,-0.0449 -0.5516,-0.0898 -0.8274,-0.13468 -2.4113,-0.0105 -4.8226,-0.0301 -7.234,-0.0261 -2.178,0.0173 -4.3595,0.047 -6.5317,0.21908 -1.7852,0.19199 -3.5257,0.59842 -5.3016,0.84605 -1.9603,0.0625 -3.9322,0.1578 -5.8426,0.64141 -1.8708,0.50631 -3.7511,1.03401 -5.5438,1.77235 -1.7715,0.744 -3.5456,1.47697 -5.3465,2.14612 -1.6214,0.64288 -3.3246,1.09854 -4.8502,1.95881 -1.5309,0.74765 -3.0489,1.51674 -4.5653,2.29424 -1.5336,0.77378 -2.9946,1.69239 -4.3538,2.74347 -2.215,1.68336 -4.3048,3.57604 -6.1884,5.6209 -2.2126,2.51179 -4.5336,4.94953 -6.3111,7.80634 -2.0601,3.38397 -4.1422,6.76595 -5.8707,10.33538 0,0 -1.98592,-17.86394 -1.98592,-17.86394 z" />
    <path
       style="fill:#000000;fill-opacity:1;stroke:none;filter:url(#filter4394)"
       id="path4392"
       d="m 628.90116,398.80114 c 2.18912,2.50519 5.03675,4.36745 7.85751,6.09611 0,0 -24.07081,24.69798 -24.07081,24.69798 l 0,0 c -2.39963,-2.27808 -4.81489,-4.72161 -8.07487,-5.69014 0,0 24.28817,-25.10395 24.28817,-25.10395 z"
       transform="matrix(0.88751732,0,0,0.88751732,69.796099,46.53441)" />
    <path
       style="fill:#000000;fill-opacity:1;stroke:none;filter:url(#filter4410)"
       id="path4408"
       d="m 540.66441,438.72989 c 1.31304,0.54194 2.61597,1.14517 3.91903,1.74869 0.87225,0.5288 1.78821,0.77054 2.66273,1.27602 0.36299,0.22738 0.74169,0.35415 1.12119,0.47523 0,0 7.18743,14.29337 7.18743,14.29337 l 0,0 c -0.42469,-0.0471 -0.85085,-0.0897 -1.26682,-0.25223 -0.43377,-0.20015 -0.79914,-0.55119 -1.2172,-0.7906 -0.53002,-0.30351 -1.12213,-0.34815 -1.62839,-0.79115 -1.1581,-0.76739 -2.37378,-1.4004 -3.60821,-1.70618 0,0 -7.16976,-14.25315 -7.16976,-14.25315 z" />
    <path
       transform="matrix(1.0534523,0,0,1.0534523,275.95344,-376.48244)"
       d="m 435.71428,597.85712 a 53.57143,52.142857 0 1 1 -107.14286,0 53.57143,52.142857 0 1 1 107.14286,0 z"
       sodipodi:ry="52.142857"
       sodipodi:rx="53.57143"
       sodipodi:cy="597.85712"
       sodipodi:cx="382.14285"
       id="path3830-9"
       style="fill:#e376a0;fill-opacity:1;stroke:#000000;stroke-width:4.55075169;stroke-miterlimit:4;stroke-opacity:1;stroke-dasharray:none;filter:url(#filter3936-0)"
       sodipodi:type="arc" />
    <path
       transform="matrix(0.20915035,0.31602502,-0.38858998,0.27543459,490.98063,-246.76888)"
       style="fill:#9d3558;fill-opacity:1;stroke:none;filter:url(#filter3977-0)"
       d="m 1492.8571,254.28572 c 0,60.75132 -61.7207,110 -137.8571,110 -76.1364,0 -137.8571,-49.24868 -137.8571,-110 0,-19.30903 6.3698,-38.27788 18.4693,-55 27.4074,36.60094 35.0359,57.07128 118.5222,79.49311 74.5263,16.5735 94.5018,-12.59621 138.7227,-24.49311 z"
       id="path3930-0-3"
       sodipodi:nodetypes="cssccc" />
    <path
       sodipodi:type="arc"
       style="fill:#ffffff;fill-opacity:1;stroke:none;filter:url(#filter3867-9)"
       id="path3845-7"
       sodipodi:cx="382.14285"
       sodipodi:cy="597.85712"
       sodipodi:rx="53.57143"
       sodipodi:ry="52.142857"
       d="m 435.71428,597.85712 a 53.57143,52.142857 0 1 1 -107.14286,0 53.57143,52.142857 0 1 1 107.14286,0 z"
       transform="matrix(0.45861362,0,0,0.45861362,490.43461,-46.107711)" />
    <path
       style="opacity:1;fill:#ffffff;fill-opacity:1;stroke:#000000;stroke-opacity:1;stroke-width:5;stroke-miterlimit:4;stroke-dasharray:none;filter:url(#filter4552)"
       d="m 662.4075,293.48509 c 0,8.64732 -4.5111,13.63705 -12.8795,13.63705 -8.3683,0 -22.7751,-4.0444 -15.1523,-15.65736 3.8363,-5.8444 6.2415,-13.45938 14.1421,-14.39468 8.3104,-0.98381 13.8897,7.76766 13.8897,16.41499 z"
       id="path4513"
       sodipodi:nodetypes="csssc" />
    <path
       transform="matrix(1.0534523,0,0,1.0534523,337.43074,-136.0232)"
       d="m 435.71428,597.85712 a 53.57143,52.142857 0 1 1 -107.14286,0 53.57143,52.142857 0 1 1 107.14286,0 z"
       sodipodi:ry="52.142857"
       sodipodi:rx="53.57143"
       sodipodi:cy="597.85712"
       sodipodi:cx="382.14285"
       id="path3830-2"
       style="fill:#e376a0;fill-opacity:1;stroke:#000000;stroke-width:4.55075169;stroke-miterlimit:4;stroke-opacity:1;stroke-dasharray:none;filter:url(#filter3936-2)"
       sodipodi:type="arc" />
    <path
       transform="matrix(0.35530811,0.0403847,-0.03645532,0.44796412,272.09267,318.13198)"
       style="fill:#9d3558;fill-opacity:1;stroke:none;filter:url(#filter3977-6)"
       d="m 1492.8571,254.28572 c 0,60.75132 -61.7207,110 -137.8571,110 -76.1364,0 -137.8571,-49.24868 -137.8571,-110 0,-19.30903 6.3698,-38.27788 18.4693,-55 27.4074,36.60094 35.0359,57.07128 118.5222,79.49311 74.5263,16.5735 94.5018,-12.59621 138.7227,-24.49311 z"
       id="path3930-0-7"
       sodipodi:nodetypes="cssccc" />
  </g>
</svg>
